<svg width="38" height="38" viewBox="0 0 38 38" fill="none" xmlns="http://www.w3.org/2000/svg">
<path d="M15.1309 4.16194C14.8443 4.87832 14.6533 5.92903 14.6533 6.5499C14.6533 7.36181 14.2234 7.93492 13.1727 8.46027C11.8355 9.17666 11.5012 9.17666 9.49527 8.46027C7.29834 7.74389 7.25058 7.74389 6.34315 8.79459C5.86556 9.41546 4.95813 10.9438 4.2895 12.1855L3.14328 14.5257L5.05365 16.2928C7.68041 18.7285 7.68041 20.1613 5.00589 22.5015L3 24.3164L4.86261 27.4685C5.91332 29.2356 6.96402 30.6684 7.29834 30.6684C7.58489 30.6684 8.73112 30.334 9.87734 29.952C11.6444 29.3311 12.0265 29.3311 13.2683 29.952C14.1757 30.4773 14.6533 31.0504 14.6533 31.8146C14.6533 32.4354 14.8921 33.5817 15.1786 34.4413C15.704 35.9219 15.704 35.9219 19.1904 35.9219C23.1067 35.9219 23.5365 35.6353 24.0141 32.6742C24.4439 29.8564 26.1155 28.949 28.9811 29.952C30.1273 30.334 31.2735 30.6684 31.5601 30.6684C31.8944 30.6684 32.9451 29.2356 33.9958 27.4685L35.8584 24.3164L33.8525 22.5015C31.178 20.1613 31.1302 18.6808 33.8048 16.245L35.7629 14.4779L34.1868 11.7079C31.8944 7.60061 31.9899 7.64837 29.1243 8.55579C26.8797 9.27218 26.5931 9.27218 25.4946 8.55579C24.6827 8.03044 24.2051 7.12301 23.9186 5.4992L23.4887 3.20675L19.5247 3.06347C15.6562 2.9202 15.6085 2.96795 15.1309 4.16194ZM20.6709 7.60061C21.2441 10.2274 21.4351 10.6094 21.9604 10.6094C22.2948 10.6094 23.3932 11.1826 24.3962 11.8512C26.1155 13.0452 26.3543 13.0929 28.1692 12.5198C29.8885 11.9945 30.175 12.0422 30.7482 12.8064C31.3213 13.6183 31.2258 13.8571 29.8407 14.9555C28.408 16.1495 28.3124 16.3883 28.3602 19.3494C28.408 22.215 28.5512 22.597 29.9363 23.8388C31.2258 24.985 31.3213 25.2716 30.7959 26.0357C30.2228 26.8476 30.0318 26.8476 28.408 26.179C26.7364 25.4626 26.5931 25.4626 24.0141 26.9909C21.6739 28.3281 21.2918 28.8057 20.8142 30.5728C20.3366 32.2444 20.0978 32.5787 19.2382 32.4832C18.5218 32.3877 18.1875 31.8623 17.8531 30.334C17.6143 28.9968 17.1845 28.2326 16.5636 28.0416C16.0861 27.8983 14.8921 27.2297 13.9846 26.6088C12.3608 25.5103 12.1698 25.5103 10.3549 26.1312C8.54008 26.7521 8.44456 26.7521 7.91921 25.7969C7.44162 24.9372 7.58489 24.6507 8.87439 23.6477C10.2594 22.5493 10.3549 22.2627 10.3549 19.3972C10.3549 16.5316 10.2594 16.245 8.82664 14.9078C7.3461 13.6183 7.29834 13.475 8.06249 12.7109C8.73112 11.9945 9.11319 11.9467 10.1161 12.4243C11.8832 13.2362 12.4563 13.1407 14.51 11.8512C17.3756 9.98857 17.9964 9.27218 17.9964 7.74389C17.9964 6.5499 18.1875 6.31111 19.1904 6.31111C20.0978 6.31111 20.4321 6.64542 20.6709 7.60061Z" fill="#0084D0"/>
<path d="M15.7513 14.0456C11.6917 16.8634 11.9783 22.3558 16.2289 24.9348C19.9063 27.1795 24.6823 25.1258 25.6374 20.8752C26.1628 18.4395 25.3986 16.1948 23.4405 14.4755C21.2913 12.5651 18.0915 12.4218 15.7513 14.0456ZM21.7689 17.5798C23.0584 19.2037 23.0107 19.9678 21.5779 21.3528C20.1451 22.8334 18.3303 22.8811 17.0408 21.4961C15.8468 20.1588 15.799 18.535 17.0408 17.2933C18.4258 15.9083 20.575 16.0515 21.7689 17.5798Z" fill="#0084D0"/>
</svg>
