<svg width="38" height="38" viewBox="0 0 38 38" fill="none" xmlns="http://www.w3.org/2000/svg">
<path d="M17.1729 3.57898C16.4731 4.1039 16.2981 4.89129 16.1231 9.13443L15.9044 14.0775L9.47406 17.9706C3.08749 21.7763 3 21.8638 3 23.3511C3 24.6197 3.13123 24.8384 3.78739 24.6634C4.18108 24.5759 6.89319 23.7448 9.82401 22.9137C12.7548 22.0388 15.3357 21.3389 15.6419 21.3389C15.9919 21.3389 16.1231 22.4762 16.0356 25.3633L15.9044 29.3877L14.0671 30.6563C12.7111 31.5312 12.1862 32.1873 12.1862 32.9747C12.1862 34.2433 12.7111 34.287 16.1231 33.3684C18.2228 32.7997 18.7915 32.7997 20.9786 33.3684C24.4344 34.287 24.8718 34.2433 24.8718 32.931C24.8718 32.0999 24.3907 31.5312 22.9034 30.6126L20.9349 29.4315V25.4071C20.9349 22.8262 21.1099 21.3389 21.4161 21.3389C21.6348 21.3389 24.4781 22.1263 27.7152 23.0887C30.9522 24.051 33.6643 24.8384 33.7955 24.8384C33.9268 24.8384 34.058 24.1822 34.058 23.3511C34.058 21.9076 33.9268 21.7763 27.4965 17.9706L20.9349 14.1212V9.39689C20.9349 5.28498 20.8474 4.62883 20.06 3.84144C19.0102 2.79159 18.354 2.74785 17.1729 3.57898Z" fill="#0084D0"/>
</svg>
