<svg width="38" height="38" viewBox="0 0 38 38" fill="none" xmlns="http://www.w3.org/2000/svg">
<path d="M13.1312 3.9766C9.82848 5.37212 8.29341 6.53505 6.20013 9.37261C0.199392 17.3271 2.94391 28.8634 11.8752 33.4221C15.4106 35.2828 21.1322 35.5153 25.0396 34.0268C28.761 32.6313 32.2033 29.3751 33.9245 25.5606C34.9944 23.1417 35.2269 22.0718 35.2269 18.9552C35.2269 14.1639 33.6454 10.4425 30.2961 7.27933C27.0864 4.30222 24.4814 3.23232 19.6902 3.04625C16.3409 2.9067 15.3175 3.04625 13.1312 3.9766ZM24.714 7.37236C30.6217 10.303 33.5523 17.7457 31.1334 23.5604C29.924 26.5375 29.5053 26.8166 28.2959 25.7002L27.2725 24.7698L28.2028 22.0718C28.9936 19.746 28.9936 19.0947 28.5284 16.9549C27.5516 12.4893 23.7372 9.41913 19.225 9.41913C15.1315 9.41913 12.0613 11.4194 10.3402 15.2338C8.43296 19.3738 10.0611 24.6303 13.922 27.0957C15.7362 28.2586 16.6665 28.4912 18.8528 28.4912C20.3414 28.4912 22.3416 28.1656 23.272 27.7935C24.8536 27.0957 25.0396 27.1422 25.877 27.9795C26.9934 29.096 26.6212 29.7472 24.1558 30.8636C21.923 31.887 17.6899 32.0265 14.8524 31.1892C11.9683 30.3519 7.87475 26.0723 6.9444 22.9092C6.01406 19.7925 6.01406 18.1179 6.9444 15.0477C9.0842 7.83754 17.969 4.02312 24.714 7.37236ZM23.4115 14.3965C25.3187 16.3502 26.063 18.7691 25.2722 20.8159L24.7605 22.1184L23.6441 21.0485C22.9929 20.4437 22.4812 19.4669 22.4812 18.8621C22.4812 16.2107 18.2016 14.8151 16.713 16.9549C15.0849 19.2343 16.713 22.444 19.4576 22.444C20.0158 22.444 20.9461 22.9557 21.5043 23.5604L22.5742 24.7233L20.7135 25.235C15.5966 26.584 11.131 21.0485 13.4103 16.2572C14.4802 13.9313 16.5735 12.6753 19.411 12.6753C21.4113 12.6753 21.8765 12.8614 23.4115 14.3965Z" fill="#0084D0"/>
</svg>
