<svg width="38" height="38" viewBox="0 0 38 38" fill="none" xmlns="http://www.w3.org/2000/svg">
<path d="M15.4081 4.47916C15.2737 5.77903 15.0944 5.95833 13.7497 6.04797C10.9706 6.27209 11.0155 5.95833 11.0155 19.8983C11.0155 35.2727 10.2983 33.9728 18.6354 33.9728C26.9725 33.9728 26.2553 35.2727 26.2553 19.8983C26.2553 10.2614 26.1209 7.07891 25.6726 6.72032C25.4037 6.45138 24.4176 6.18244 23.5659 6.0928C22.2212 5.95833 21.9523 5.77903 21.773 4.61363C21.5 3 22 3 18.5457 3.13447L15.5 3L15.4081 4.47916ZM21.3248 19.1812C22.0868 19.1812 22.6695 19.3156 22.6695 19.4501C22.6695 19.8983 17.5148 29.4905 17.2907 29.4905C17.1562 29.4905 17.1114 27.8769 17.201 25.9046L17.3803 22.3188H16.0356C15.3185 22.3188 14.6461 22.2291 14.5117 22.0947C14.3772 21.9602 15.4978 19.4501 17.0218 16.4918L19.756 11.1578L19.8904 15.1919L20.0249 19.1812H21.3248Z" fill="#0084D0"/>
</svg>
