<svg width="23" height="24" viewBox="0 0 23 24" fill="none" xmlns="http://www.w3.org/2000/svg">
<path d="M10.2225 3.76448C9.72827 4.32046 9.32673 4.50579 8.86341 4.38224C8.49275 4.28958 7.87499 4.10425 7.53522 4.01158C6.97924 3.85714 6.79391 4.04247 6.45414 5.18533C6.08348 6.26641 5.83638 6.57529 4.94063 6.88417C3.89043 7.22394 3.85955 7.25483 3.95221 8.76834C4.01399 10.0965 3.92132 10.3436 3.24179 10.8069C2.28426 11.4247 2.25337 12.0425 3.18001 12.6911C3.73599 13.0927 3.85955 13.4633 3.85955 14.7606C3.85955 16.305 3.89043 16.3668 4.94063 16.7066C5.80549 16.9846 6.11437 17.3243 6.42325 18.251C6.63947 18.9305 6.85568 19.5174 6.91746 19.5792C6.97924 19.6409 7.56611 19.5483 8.21476 19.3629C9.32673 19.0541 9.45028 19.0849 10.4078 20.0116L11.4271 21L12.4464 20.0116C13.3731 19.1158 13.5893 19.0232 14.3306 19.332C15.6897 19.8263 15.9677 19.7027 16.431 18.3127C16.7707 17.1699 16.987 16.9846 18.0372 16.7066L19.2109 16.4286L19.0256 15.0077C18.8711 13.7413 18.9329 13.4942 19.6124 12.8456C20.57 11.9498 20.57 11.7027 19.7051 10.7452C19.18 10.1892 18.9947 9.6332 18.9947 8.6139C18.9947 7.25483 18.9329 7.16216 17.9136 6.82239C17.0487 6.5444 16.7399 6.20463 16.431 5.27799C16.2148 4.59846 15.9677 4.01158 15.9059 3.94981C15.8441 3.88803 15.2881 3.9807 14.6704 4.19691C13.6202 4.53668 13.4657 4.50579 12.6935 3.76448C11.6433 2.74517 11.0873 2.74517 10.2225 3.76448ZM15.3808 9.47876C15.4117 9.72587 14.2997 11.0849 12.848 12.5058L10.2534 15.1004L8.80163 13.7413C7.78233 12.7529 7.44256 12.2278 7.56611 11.8263C7.87499 11.0849 8.30742 11.1776 9.32673 12.1351L10.1916 12.9691L12.3538 10.8687C14.4233 8.861 15.1955 8.52124 15.3808 9.47876Z" fill="#0084D0"/>
</svg>
