<svg width="18" height="20" viewBox="0 0 18 20" fill="none" xmlns="http://www.w3.org/2000/svg">
<path d="M13.5002 2.20592C14.8576 2.9897 15.9868 4.11441 16.776 5.46873C17.5652 6.82304 17.987 8.35999 17.9997 9.92742C18.0124 11.4948 17.6154 13.0384 16.8482 14.4053C16.081 15.7722 14.9701 16.915 13.6255 17.7206C12.2809 18.5262 10.7492 18.9667 9.182 18.9984C7.61484 19.0301 6.06657 18.652 4.69046 17.9014C3.31434 17.1509 2.15811 16.054 1.33622 14.7192C0.514322 13.3845 0.0552691 11.8583 0.00450016 10.2916L0 10L0.00450016 9.70841C0.0549036 8.15408 0.507199 6.63934 1.31729 5.31185C2.12738 3.98436 3.26763 2.88943 4.62686 2.13381C5.98609 1.37819 7.51792 0.98766 9.07302 1.0003C10.6281 1.01293 12.1534 1.42831 13.5002 2.20592ZM9.00011 4.59995C8.77967 4.59998 8.5669 4.68091 8.40217 4.82739C8.23743 4.97388 8.13219 5.17573 8.1064 5.39466L8.1001 5.49996V10L8.1082 10.1179C8.12872 10.2741 8.18986 10.4221 8.2855 10.5472L8.3638 10.6372L11.0638 13.3373L11.1484 13.4111C11.3063 13.5335 11.5004 13.6 11.7001 13.6C11.8999 13.6 12.094 13.5335 12.2519 13.4111L12.3365 13.3364L12.4112 13.2518C12.5336 13.0939 12.6001 12.8998 12.6001 12.7C12.6001 12.5003 12.5336 12.3062 12.4112 12.1483L12.3365 12.0637L9.90012 9.62651V5.49996L9.89382 5.39466C9.86803 5.17573 9.76279 4.97388 9.59805 4.82739C9.43332 4.68091 9.22055 4.59998 9.00011 4.59995Z" fill="white"/>
</svg>
