<svg width="24" height="24" viewBox="0 0 24 24" fill="none" xmlns="http://www.w3.org/2000/svg">
<path d="M2 12.0008C2 6.4775 6.4775 2 12.0008 2C17.5241 2 22.0016 6.4775 22.0016 12.0008C22.0016 17.5241 17.5241 22.0016 12.0008 22.0016C6.4775 22.0016 2 17.5241 2 12.0008Z" fill="white"/>
<path d="M12.0008 12.8527L9.01921 15.8342C8.90765 15.9458 8.76568 16.0016 8.59327 16.0016C8.42087 16.0016 8.27889 15.9458 8.16733 15.8342C8.05578 15.7227 8 15.5807 8 15.4083C8 15.2359 8.05578 15.0939 8.16733 14.9824L11.1489 12.0008L8.16733 9.01921C8.05578 8.90765 8 8.76568 8 8.59327C8 8.42087 8.05578 8.27889 8.16733 8.16733C8.27889 8.05578 8.42087 8 8.59327 8C8.76568 8 8.90765 8.05578 9.01921 8.16733L12.0008 11.1489L14.9824 8.16733C15.0939 8.05578 15.2359 8 15.4083 8C15.5807 8 15.7227 8.05578 15.8342 8.16733C15.9458 8.27889 16.0016 8.42087 16.0016 8.59327C16.0016 8.76568 15.9458 8.90765 15.8342 9.01921L12.8527 12.0008L15.8342 14.9824C15.9458 15.0939 16.0016 15.2359 16.0016 15.4083C16.0016 15.5807 15.9458 15.7227 15.8342 15.8342C15.7227 15.9458 15.5807 16.0016 15.4083 16.0016C15.2359 16.0016 15.0939 15.9458 14.9824 15.8342L12.0008 12.8527Z" fill="#0084D0"/>
</svg>
