<svg width="48" height="48" viewBox="0 0 48 48" fill="none" xmlns="http://www.w3.org/2000/svg">
<path d="M21.5224 12.3086C18.9418 12.582 16.6346 14.0069 15.2966 16.1609C14.7457 17.0473 14.3646 18.0332 14.1409 19.1557C14.0954 19.3753 14.0829 19.396 14.0001 19.3753C13.7226 19.3049 12.7284 19.2676 12.2396 19.309C11.1461 19.4043 10.2928 19.6362 9.35662 20.096C8.46189 20.5351 7.78256 21.0239 7.15294 21.6867C5.04454 23.8986 4.34035 27.026 5.30136 29.9049C5.92269 31.773 7.18194 33.3388 8.88026 34.3702C9.77085 34.9087 10.7816 35.2691 11.9041 35.4514C12.2852 35.5094 12.8858 35.5218 16.8458 35.5342L21.3484 35.5508V31.9884V28.422H19.6211C17.9477 28.422 17.8897 28.4178 17.7115 28.335C17.4547 28.2066 17.3139 27.9787 17.3097 27.6764C17.3097 27.374 17.3719 27.2787 18.1838 26.3218C18.5317 25.9159 19.1903 25.1372 19.6501 24.5904C22.9929 20.6345 23.1296 20.4771 23.3077 20.3901C23.6805 20.2079 23.9663 20.3073 24.3391 20.7339C24.4841 20.8996 24.9356 21.434 25.3457 21.9186C25.7558 22.4074 26.7707 23.6087 27.6032 24.5945C28.4358 25.5762 29.285 26.5828 29.488 26.8231C29.6951 27.0674 29.8856 27.3367 29.9146 27.4195C30.0389 27.7592 29.8649 28.1776 29.5418 28.335C29.3637 28.4178 29.3057 28.422 27.6322 28.422H25.9049L25.9132 31.976L25.9256 35.5259H31.8076C38.4145 35.5259 38.0583 35.5425 39.04 35.2153C41.4508 34.4158 43.174 32.3985 43.5343 29.9422C43.6213 29.3664 43.5923 28.4178 43.4722 27.8628C42.9586 25.4395 41.0904 23.588 38.6921 23.1199L38.4518 23.0702L38.4767 22.8548C38.5139 22.5524 38.4311 21.7861 38.311 21.3221C37.8305 19.4664 36.4138 18.058 34.5332 17.561C34.0652 17.4367 34.0072 17.4284 33.2367 17.4284C32.4662 17.4284 32.4083 17.4367 31.9402 17.561C31.4762 17.6811 30.7265 18.0001 30.4655 18.1906C30.3993 18.2362 30.3288 18.2734 30.3081 18.2734C30.2833 18.2734 30.1963 18.0746 30.1052 17.8261C29.9063 17.2793 29.5252 16.513 29.2022 16.0159C27.9471 14.0815 25.9298 12.7642 23.6474 12.3873C23.0758 12.2962 22.0278 12.2548 21.5224 12.3086Z" fill="#0084D0"/>
</svg>
