<svg width="38" height="38" viewBox="0 0 38 38" fill="none" xmlns="http://www.w3.org/2000/svg">
<path d="M6.65836 7.45963L6.8005 9.11685L10.828 9.259C15.1397 9.40114 16.0399 9.82758 16.0399 11.5333C16.0399 13.0969 14.3342 14.0919 11.6334 14.0919C7.41647 14.0919 5 16.461 5 20.6306C5 24.3264 8.17457 27.0271 12.2494 26.7902C14.2868 26.6481 14.3816 26.5533 14.5237 25.0845C14.6659 23.5683 14.6659 23.5683 12.5811 23.5683C9.83293 23.5683 8.31672 22.3837 8.31672 20.2516C8.31672 18.2615 9.45388 17.4087 12.1073 17.4087C16.5138 17.4087 19.3567 15.0396 19.3567 11.3912C19.3567 9.59067 19.1197 9.02209 17.7457 7.64802C17.7457 7.64802 16.8499 6.88016 16.0399 6.51199C14.4763 5.80127 11.3018 6.03704 11.3018 6.03704H6.65836L6.65836 7.45963Z" fill="#0084D0"/>
<path d="M22.7685 18.6887C21.7261 18.8309 20.8258 19.3995 19.9256 20.5366C19.0253 21.6738 18.2672 22.1476 17.3669 22.1476C16.0402 22.1476 15.8979 21.9132 16.0402 25.2274V28.3072H17.6512C18.8832 28.3072 19.357 28.5441 19.5939 29.2549C20.1151 30.9606 21.8682 31.6713 24.9007 31.5292L27.6488 31.387L27.7436 25.9855C27.791 23.0005 27.8858 20.0686 27.6488 19.5C27.7436 18.1922 26.4643 18.2623 22.7685 18.6887Z" fill="#0084D0"/>
<path d="M28.832 22.1489C28.832 23.5229 28.9268 23.5703 30.9168 23.5703C33.0964 23.5703 34.3283 22.6701 33.8545 21.4381C33.665 20.9169 32.9069 20.7274 31.2011 20.7274C28.8794 20.7274 28.832 20.7748 28.832 22.1489Z" fill="#0084D0"/>
<path d="M29.1637 27.2192C28.9742 27.3614 28.832 27.9774 28.832 28.5933C28.832 29.3514 29.1637 29.6831 30.1587 29.7779C33.1438 30.2043 34.8495 29.1145 33.5702 27.5983C33.0016 26.8876 29.7323 26.6033 29.1637 27.2192Z" fill="#0084D0"/>
</svg>
