<svg width="24" height="24" viewBox="0 0 24 24" fill="none" xmlns="http://www.w3.org/2000/svg">
<path d="M11.3801 13.6775C11.5682 13.817 11.7748 13.8867 12 13.8867C12.2252 13.8867 12.4318 13.817 12.6199 13.6775L21.7059 6.8427C21.7059 6.62129 21.677 6.37764 21.6192 6.11176C21.5614 5.84676 21.5074 5.62882 21.4574 5.45796L12 12.5543L2.49341 5.50896C2.44337 5.67982 2.39765 5.89426 2.35623 6.1523C2.31482 6.40946 2.29412 6.64046 2.29412 6.84532L11.3801 13.6775ZM3.09129 21C2.49514 21 1.99776 20.7982 1.59918 20.3946C1.20059 19.991 1.00086 19.4884 1 18.8869V6.11176C1 5.51027 1.19973 5.00815 1.59918 4.60541C1.99863 4.20268 2.496 4.00087 3.09129 4H20.91C21.5053 4 22.0027 4.2018 22.4021 4.60541C22.8016 5.00902 23.0009 5.51158 23 6.11307V18.8869C23 19.4884 22.8007 19.991 22.4021 20.3946C22.0035 20.7982 21.5062 20.9996 20.91 20.9987L3.09129 21Z" fill="white"/>
</svg>
