<svg width="18" height="20" viewBox="0 0 18 20" fill="none" xmlns="http://www.w3.org/2000/svg">
<path d="M8.53509 11.2581C8.67615 11.3627 8.83112 11.415 9 11.415C9.16888 11.415 9.32385 11.3627 9.46491 11.2581L16.2794 6.13203C16.2794 5.96596 16.2577 5.78323 16.2144 5.58382C16.171 5.38507 16.1306 5.22162 16.0931 5.09347L9 10.4157L1.87006 5.13172C1.83253 5.25986 1.79824 5.4207 1.76718 5.61422C1.73612 5.80709 1.72059 5.98035 1.72059 6.13399L8.53509 11.2581ZM2.31847 16.75C1.87135 16.75 1.49832 16.5986 1.19938 16.2959C0.900441 15.9932 0.750647 15.6163 0.75 15.1652V5.58382C0.75 5.1327 0.899794 4.75611 1.19938 4.45406C1.49897 4.15201 1.872 4.00065 2.31847 4H15.6825C16.129 4 16.502 4.15135 16.8016 4.45406C17.1012 4.75677 17.2506 5.13368 17.25 5.5848V15.1652C17.25 15.6163 17.1005 15.9932 16.8016 16.2959C16.5026 16.5986 16.1296 16.7497 15.6825 16.749L2.31847 16.75Z" fill="white"/>
</svg>
