<svg width="38" height="38" viewBox="0 0 38 38" fill="none" xmlns="http://www.w3.org/2000/svg">
<path d="M4.40325 3.91071C2.68403 5.62994 2.493 11.695 4.11671 13.0321C4.68979 13.5097 4.83306 15.42 4.83306 23.252C4.83306 32.3257 4.88081 32.9942 5.78818 33.9494C6.74331 35 7.02984 35 19.3987 35C31.7676 35 32.0541 35 33.0092 33.9494C33.9166 32.9942 33.9643 32.3257 33.9643 23.252C33.9643 15.2767 34.1076 13.5097 34.6807 13.0321C35.206 12.6023 35.397 11.4562 35.397 8.68633C35.397 2.66905 36.3044 3.00334 19.3987 3.00334C6.07472 3.00334 5.26286 3.0511 4.40325 3.91071ZM32.0541 8.73409V11.1219L19.3032 11.0264L6.50452 10.8831L6.36126 8.59082L6.21799 6.34628H19.1122H32.0541V8.73409ZM30.6214 23.0609V31.6571L21.0702 31.7048C15.817 31.7526 11.1846 31.7526 10.8026 31.7526C7.98497 31.7526 8.17599 32.4689 8.17599 23.0609V14.4648H19.3987H30.6214V23.0609Z" fill="#0084D0"/>
<path d="M14.3867 20.6709V22.6289L19.3056 22.4856L24.1767 22.3424V20.6709V18.9994L19.3056 18.8562L14.3867 18.7129V20.6709Z" fill="#0084D0"/>
</svg>
