<svg width="38" height="38" viewBox="0 0 38 38" fill="none" xmlns="http://www.w3.org/2000/svg">
<path d="M22.7266 3.85811C21.7946 4.49583 20.372 5.82032 19.5871 6.85047L18.0664 8.66551L19.7343 10.3824L21.4022 12.0994L22.9229 10.6277C23.7568 9.84284 24.6398 9.15607 24.836 9.15607C25.0813 9.15607 26.4548 10.2843 27.9265 11.6088C31.1151 14.5031 31.9981 14.3069 31.9981 10.7749C31.9981 8.81268 31.7528 8.32213 29.4472 5.91843C26.3077 2.72984 24.9832 2.3374 22.7266 3.85811Z" fill="#0084D0"/>
<path d="M12.9168 9.44971C12.3281 10.1855 11.8866 10.9214 11.8866 11.1176C11.8866 11.3138 13.2111 12.8836 14.7809 14.6005L17.6751 17.7891L11.8376 23.8229C6.78488 29.0227 6 30.0529 6 31.4264C6 33.3886 7.27543 34.6641 9.18859 34.6641C10.3169 34.6641 11.9847 33.2905 18.2638 27.0605C22.4825 22.8908 26.2598 19.457 26.6522 19.457C27.0937 19.457 27.8295 19.0155 28.3201 18.4759C29.154 17.5438 29.105 17.4457 26.456 14.6986L23.7089 11.8534L22.5806 12.9817L21.4033 14.0609L18.5581 11.1176C16.9884 9.49877 15.3205 8.17428 14.8299 8.17428C14.3394 8.17428 13.4564 8.76294 12.9168 9.44971Z" fill="#0084D0"/>
<path d="M10.0233 16.3632C7.2762 19.1103 7.07997 19.6499 8.2573 21.3178C9.43462 23.0347 10.9553 22.6423 13.5062 20.0423L15.8118 17.6877L14.193 15.7745L12.5251 13.8614L10.0233 16.3632Z" fill="#0084D0"/>
</svg>
