<svg width="38" height="38" viewBox="0 0 38 38" fill="none" xmlns="http://www.w3.org/2000/svg">
<path d="M23.4422 5.31406C22.5813 6.03906 21.3125 6.71875 20.5875 6.80937C19.5 6.9 19.1828 7.17188 19.0922 8.16875C18.9563 9.34687 18.8203 9.4375 16.6453 9.4375C14.7422 9.4375 14.1078 9.21094 12.7938 8.07812C10.4375 5.99375 7.26562 6.40156 5.725 8.98438C4.6375 10.7969 4.77344 12.3375 6.13281 13.9234C6.85781 14.7844 7.99063 17.6391 9.25938 21.6719L11.2078 28.0156L9.66719 28.2875C7.9 28.6047 6.31406 30.3266 6.31406 31.9125V33H16.5094H26.7047V31.5047C26.7047 29.5109 25.6172 28.5594 23.125 28.3781L21.1313 28.2422L17.3703 21.2188C15.2859 17.3672 13.5641 13.9234 13.5641 13.6062C13.5641 13.2437 14.3797 13.0625 16.2375 13.0625C18.8656 13.0625 18.9563 13.1078 19.0922 14.2859C19.1828 15.3281 19.5 15.6 20.5875 15.6906C21.3125 15.7812 22.5813 16.4609 23.4422 17.1859C24.2578 17.9109 25.2547 18.5 25.7078 18.5C26.9313 18.5 32.8219 15.1016 32.9578 14.3312C33.2297 13.0172 31.2359 13.0625 28.5625 14.4219L25.9797 15.6906L24.0766 14.1047C21.4937 11.975 21.4937 10.525 24.0312 8.39531L25.8891 6.80937L28.6078 8.07812C30.7375 9.12031 31.5531 9.30156 32.2328 8.93906C32.7313 8.66719 33.0484 8.21406 32.9578 7.94219C32.7313 7.2625 26.75 4.04531 25.7078 4C25.2547 4 24.2578 4.58906 23.4422 5.31406ZM10.6188 11.25C10.6188 12.0656 10.3469 12.4281 9.57656 12.5187C8.48906 12.7 7.85469 11.7031 8.30781 10.525C8.44375 10.1172 8.9875 9.89062 9.57656 9.98125C10.3469 10.0719 10.6188 10.4344 10.6188 11.25ZM15.6484 24.9344C16.5094 26.6109 17.1891 28.1062 17.1891 28.1969C17.1891 28.4688 15.0141 28.2422 14.6969 27.925C14.5156 27.7437 12.8844 22.6687 11.5703 18.0469C11.2078 16.7781 13.2922 20.2672 15.6484 24.9344Z" fill="#0084D0"/>
</svg>
