<svg width="54" height="54" viewBox="0 0 54 54" fill="none" xmlns="http://www.w3.org/2000/svg">
<path opacity="0.987" fill-rule="evenodd" clip-rule="evenodd" d="M24.334 3.58003C26.7809 3.30666 28.2288 3.30666 30.8579 3.58003C35.5118 4.26885 39.826 6.42004 43.1766 9.72253C40.9124 11.8627 38.678 14.0342 36.4739 16.2363C32.2529 12.6588 27.5414 11.833 22.3394 13.759C18.5234 15.514 15.8661 18.358 14.3676 22.291C11.9189 20.468 9.502 18.6024 7.11813 16.6953C6.95246 16.6081 6.76324 16.5761 6.57812 16.6042C10.3649 9.30291 16.2824 4.96041 24.3306 3.57666" fill="#F44336"/>
<path opacity="0.997" fill-rule="evenodd" clip-rule="evenodd" d="M6.5686 16.6084C6.75985 16.5792 6.94098 16.6095 7.11198 16.6995C9.49585 18.6067 11.9127 20.4722 14.3615 22.2953C13.9761 23.8277 13.7332 25.3925 13.6358 26.9697C13.7191 28.4952 13.961 29.9925 14.3615 31.4618L6.75085 37.5199C3.4366 30.5944 3.37585 23.6239 6.5686 16.6084Z" fill="#FFC107"/>
<path opacity="0.999" fill-rule="evenodd" clip-rule="evenodd" d="M42.8103 44.8567C40.4406 42.7668 37.9597 40.8064 35.3785 38.9842C37.966 37.1572 39.5365 34.6507 40.09 31.4647H27.4102V22.6593C34.7227 22.5985 42.0318 22.6604 49.3375 22.8449C50.7235 30.3712 49.1227 37.1572 44.5349 43.2029C43.9894 43.7828 43.4115 44.3348 42.8103 44.8567Z" fill="#448AFF"/>
<path opacity="0.993" fill-rule="evenodd" clip-rule="evenodd" d="M14.3606 31.457C17.1281 38.3353 22.2019 41.546 29.5819 41.0893C31.6536 40.8495 33.6398 40.1257 35.3801 38.9765C37.9631 40.8035 40.4404 42.761 42.8119 44.849C39.0543 48.2256 34.2634 50.229 29.2207 50.5325C28.0751 50.6241 26.9239 50.6241 25.7782 50.5325C17.1877 49.52 10.845 45.1798 6.75 37.5118L14.3606 31.457Z" fill="#43A047"/>
</svg>
