<svg width="38" height="38" viewBox="0 0 38 38" fill="none" xmlns="http://www.w3.org/2000/svg">
<path d="M5.72424 7.02692C3.18788 7.96631 3 8.15419 3 9.56328C3 11.4421 3.70455 11.536 6.75758 10.1269C7.93182 9.56328 9.62273 9.14055 10.5152 9.14055C11.4076 9.14055 13.0985 9.56328 14.2727 10.1269C15.447 10.6436 17.2318 11.1133 18.2652 11.1133C19.2985 11.1133 21.0833 10.6436 22.2576 10.1269C24.9348 8.85874 27.0955 8.85874 29.7727 10.1269C30.947 10.6436 32.3561 11.1133 32.9667 11.1133C33.8121 11.1133 34 10.8784 34 9.56328C34 8.10722 33.8591 8.01328 30.7591 6.97995C26.8136 5.71177 24.1833 5.6648 21.7879 6.88601C19.4864 8.06025 17.4197 8.06025 14.7894 6.88601C12.2061 5.71177 9.15303 5.75874 5.72424 7.02692Z" fill="#0084D0"/>
<path d="M6.19394 13.7959C3.14091 14.9701 3 15.0641 3 16.5671C3 17.4595 3.14091 18.1641 3.37576 18.1641C3.56364 18.1641 5.30152 17.6004 7.32121 16.8959L10.8909 15.6277L14.1788 16.9429C17.8424 18.3989 19.1576 18.3989 23.0091 16.708C25.6864 15.5807 26.3439 15.5807 28.9273 16.708C30.0545 17.1777 31.6515 17.7413 32.497 17.9292C33.953 18.211 34 18.211 34 16.661C34 15.158 33.8591 15.0641 30.5242 13.7959C28.6455 13.0913 26.7197 12.5277 26.203 12.5277C25.7333 12.5277 23.7136 13.0913 21.7409 13.7959L18.1242 15.0641L15.0242 13.7959C11.2667 12.2459 10.2333 12.2459 6.19394 13.7959Z" fill="#0084D0"/>
<path d="M6.75758 20.5071C5.86515 21.0238 4.64394 21.3995 4.0803 21.4465C3.18788 21.4465 3 21.6813 3 23.0904C3 24.4995 3.14091 24.7344 4.0803 24.7344C4.64394 24.7344 6.05303 24.3116 7.1803 23.795C9.71667 22.6207 11.5955 22.6207 14.2258 23.795C16.8091 24.9692 20.05 24.9692 22.6803 23.795C25.2636 22.6207 26.7667 22.6207 29.5379 23.795C30.7591 24.3116 32.2621 24.7344 32.8727 24.7344C33.8121 24.7344 34 24.4995 34 23.3253C34 22.3859 33.7182 21.7753 33.2015 21.6344C32.7318 21.4935 31.3697 20.9768 30.1485 20.4601C27.2833 19.2859 24.5591 19.3329 22.1167 20.5541C19.6742 21.8223 17.4667 21.8223 14.7424 20.5541C12.1121 19.3329 8.91818 19.3329 6.75758 20.5071Z" fill="#0084D0"/>
<path d="M7.93182 26.8957C6.89848 27.2715 5.34848 27.8351 4.55 28.1169C3.23485 28.5866 3 28.8684 3 30.2306C3 32.1093 3.37576 32.1563 7.41515 30.6533C10.6561 29.4321 11.1727 29.479 14.8364 31.029C17.2788 32.0624 19.2985 31.9684 22.8682 30.6063C26.1091 29.4321 26.6258 29.4321 30.3364 31.029C33.1545 32.2503 34 32.0624 34 30.2306C34 28.8684 33.8121 28.6336 32.2621 28.1639C31.2758 27.8821 29.5379 27.2715 28.4106 26.8487C26.1091 26.0033 24.4652 26.1912 21.6939 27.6003C19.4864 28.7275 17.3727 28.7275 14.8364 27.5533C11.9242 26.2381 10.0455 26.0503 7.93182 26.8957Z" fill="#0084D0"/>
</svg>
