<svg width="38" height="38" viewBox="0 0 38 38" fill="none" xmlns="http://www.w3.org/2000/svg">
<path d="M17.0859 5.46555V7.88281L18.6813 7.73778C20.18 7.59274 20.2284 7.49605 20.3734 5.27216L20.5185 2.99993H18.8264H17.0859V5.46555Z" fill="#0084D0"/>
<path d="M6.0636 7.98132L5 9.09326L6.64374 10.6887C8.0941 12.0907 8.38417 12.1874 9.30273 11.6072C10.7047 10.737 10.6081 10.2052 8.72259 8.41643L7.12719 6.86938L6.0636 7.98132Z" fill="#0084D0"/>
<path d="M28.2023 8.55862L26.5586 10.2507L27.7189 11.4593L28.8792 12.668L30.7163 10.8792L32.5534 9.09041L31.4898 7.97847C30.9097 7.34998 30.3295 6.86653 30.1361 6.86653C29.9911 6.86653 29.1209 7.64006 28.2023 8.55862Z" fill="#0084D0"/>
<path d="M9.2056 14.41C9.01222 14.6034 8.86719 16.4405 8.86719 18.471V22.1452L11.2845 24.5142L13.7017 26.8831V30.654C13.7017 33.0229 13.8951 34.4733 14.2819 34.715C15.2004 35.2952 23.0807 34.9084 23.4675 34.2799C23.6609 33.9415 23.8542 32.1527 23.8542 30.3156C23.8542 26.8831 23.8542 26.8831 26.0298 24.7559L28.2537 22.5804L28.1086 18.471L27.9636 14.3616L18.7296 14.2166C13.7017 14.1683 9.39899 14.265 9.2056 14.41ZM24.8211 19.1962C24.8211 20.5982 24.386 21.4201 22.6456 23.2572C20.5668 25.4811 20.4701 25.6745 20.4701 28.5752V31.5242H18.778H17.0859V28.4785C17.0859 25.4811 17.0375 25.4327 14.6686 23.0638C12.7348 21.1783 12.2514 20.3565 12.2514 19.0995V17.5041H18.5363H24.8211V19.1962Z" fill="#0084D0"/>
</svg>
