<svg width="24" height="24" viewBox="0 0 24 24" fill="none" xmlns="http://www.w3.org/2000/svg">
<path d="M19.669 3.00013H4.33099C4.15857 2.99775 3.98738 3.02915 3.82717 3.09254C3.66697 3.15593 3.5209 3.25007 3.3973 3.36958C3.2737 3.48909 3.175 3.63163 3.10683 3.78906C3.03866 3.94649 3.00236 4.11573 3 4.28711V19.7129C3.00236 19.8843 3.03866 20.0535 3.10683 20.2109C3.175 20.3684 3.2737 20.5109 3.3973 20.6304C3.5209 20.7499 3.66697 20.8441 3.82717 20.9075C3.98738 20.9708 4.15857 21.0023 4.33099 20.9999H19.669C19.8414 21.0023 20.0126 20.9708 20.1728 20.9075C20.333 20.8441 20.4791 20.7499 20.6027 20.6304C20.7263 20.5109 20.825 20.3684 20.8932 20.2109C20.9613 20.0535 20.9976 19.8843 21 19.7129V4.28711C20.9976 4.11573 20.9613 3.94649 20.8932 3.78906C20.825 3.63163 20.7263 3.48909 20.6027 3.36958C20.4791 3.25007 20.333 3.15593 20.1728 3.09254C20.0126 3.02915 19.8414 2.99775 19.669 3.00013ZM8.45976 18.0659H5.74346V9.96603H8.45976V18.0659ZM7.10161 8.83204C6.727 8.83204 6.36773 8.68412 6.10284 8.42083C5.83795 8.15753 5.68913 7.80042 5.68913 7.42806C5.68913 7.05571 5.83795 6.6986 6.10284 6.4353C6.36773 6.172 6.727 6.02408 7.10161 6.02408C7.30053 6.00166 7.50197 6.02125 7.69274 6.08158C7.88352 6.1419 8.05932 6.2416 8.20864 6.37414C8.35796 6.50669 8.47744 6.66909 8.55924 6.85071C8.64104 7.03233 8.68333 7.22907 8.68333 7.42806C8.68333 7.62705 8.64104 7.8238 8.55924 8.00542C8.47744 8.18704 8.35796 8.34944 8.20864 8.48198C8.05932 8.61453 7.88352 8.71422 7.69274 8.77455C7.50197 8.83488 7.30053 8.85447 7.10161 8.83204ZM18.2565 18.0659H15.5402V13.719C15.5402 12.63 15.1509 11.919 14.164 11.919C13.8585 11.9212 13.5611 12.0165 13.3118 12.1919C13.0625 12.3673 12.8733 12.6144 12.7696 12.9C12.6988 13.1115 12.6681 13.3343 12.6791 13.557V18.0569H9.96278V9.95703H12.6791V11.1C12.9258 10.6744 13.2847 10.3238 13.7171 10.0859C14.1495 9.84803 14.6389 9.7319 15.1328 9.75003C16.9437 9.75003 18.2565 10.911 18.2565 13.404V18.0659Z" fill="#0084D0"/>
</svg>
