<svg width="14" height="20" viewBox="0 0 14 20" fill="none" xmlns="http://www.w3.org/2000/svg">
<path fill-rule="evenodd" clip-rule="evenodd" d="M6.35425 18.7553C6.35425 18.7553 0 13.3619 0 8.05485C0 6.18378 0.737498 4.38936 2.05025 3.06632C3.36301 1.74328 5.14348 1 7 1C8.85652 1 10.637 1.74328 11.9497 3.06632C13.2625 4.38936 14 6.18378 14 8.05485C14 13.3619 7.64575 18.7553 7.64575 18.7553C7.29225 19.0833 6.71038 19.0798 6.35425 18.7553ZM7 11.1413C7.40217 11.1413 7.80041 11.0615 8.17197 10.9064C8.54353 10.7513 8.88113 10.5239 9.16551 10.2373C9.44989 9.95072 9.67548 9.61047 9.82938 9.236C9.98329 8.86152 10.0625 8.46017 10.0625 8.05485C10.0625 7.64952 9.98329 7.24817 9.82938 6.8737C9.67548 6.49922 9.44989 6.15897 9.16551 5.87236C8.88113 5.58576 8.54353 5.35841 8.17197 5.2033C7.80041 5.04819 7.40217 4.96835 7 4.96835C6.18777 4.96835 5.40882 5.29353 4.83449 5.87236C4.26016 6.45119 3.9375 7.23626 3.9375 8.05485C3.9375 8.87343 4.26016 9.6585 4.83449 10.2373C5.40882 10.8162 6.18777 11.1413 7 11.1413Z" fill="white"/>
</svg>
