<svg width="38" height="38" viewBox="0 0 38 38" fill="none" xmlns="http://www.w3.org/2000/svg">
<path d="M4.2 7.68571C3.38571 8.11428 3 8.67143 3 9.35714C3 9.95714 3 13.8143 3 17.9286C3 22.0429 3 25.7286 3 26.0714C3 26.5 3.47143 26.7143 4.5 26.7143C5.74286 26.7143 6 26.8857 6 27.6143C6 28.0857 6.55714 29.0714 7.24286 29.7571C8.22857 30.7 8.91429 31 10.2 31C12.2143 31 14.4429 29.4143 14.6571 27.8714C14.7857 26.9714 15 26.9286 19.4143 26.8C23.5714 26.7143 24 26.7571 24 27.4429C24.0429 29.1571 26.4 31 28.6714 31C30.1714 31 32.4429 29.2429 32.6571 27.8714C32.7429 27.1 33.1286 26.8857 34.4143 26.8L36 26.6714V23.1143C36 19.6857 35.9143 19.4286 34.4571 17.2429C31.8 13.3429 31.3714 13 29.0571 13H27V10V7H16.2C7.41429 7.04286 5.14286 7.17143 4.2 7.68571ZM23.9143 16.9429L24.0429 23.7143H19.0714C14.9143 23.7143 13.9286 23.5857 12.7714 22.8571C12 22.3857 10.8857 22 10.2857 22C9.68571 22 8.57143 22.3857 7.8 22.8571C7.02857 23.3286 6.3 23.7143 6.21429 23.7143C6.08571 23.7143 6 20.7571 6 17.1143V10.4714L7.62857 10.3C8.48571 10.2143 12.5143 10.1714 16.5 10.1714L23.7857 10.2143L23.9143 16.9429ZM31.2857 17.8857C31.9714 18.9571 32.5714 19.9857 32.5714 20.2429C32.5714 20.5429 31.4571 20.7143 29.7857 20.7143H27V18.3571V16H28.5C29.7429 16 30.1286 16.2571 31.2857 17.8857ZM11.4857 25.9429C12.1714 26.6286 11.3571 28 10.2429 28C9.3 28 8.78571 27.0571 9.17143 26.0714C9.42857 25.3 10.7571 25.2143 11.4857 25.9429ZM29.7429 26.1143C30.0857 27.0143 29.2714 28 28.2 28C27.3 28 26.7857 27.0571 27.1714 26.0714C27.4714 25.2143 29.4 25.2571 29.7429 26.1143Z" fill="#0084D0"/>
</svg>
