<svg width="24" height="24" viewBox="0 0 24 24" fill="none" xmlns="http://www.w3.org/2000/svg">
<path d="M3 4.04629C3 4.12758 4.35235 5.95289 4.45581 6.0194C4.50754 6.04896 4.55188 6.11546 4.55188 6.16719C4.55188 6.21892 4.80314 6.57364 5.10612 6.95791C5.40911 7.34219 5.66036 7.6969 5.66036 7.74124C5.66036 7.77819 5.75643 7.91121 5.86728 8.03684C5.98552 8.15508 6.38457 8.67237 6.76146 9.18966C7.13095 9.70696 7.47089 10.1503 7.50784 10.1725C7.55218 10.2021 7.64825 10.3425 7.72215 10.4903C7.80343 10.6381 8.03991 10.9632 8.24683 11.2071C8.46114 11.451 8.68283 11.7466 8.73456 11.8722C8.79368 11.9904 9.02277 12.3082 9.24446 12.5742C9.46616 12.8403 9.65091 13.0841 9.65091 13.1211C9.65091 13.158 9.46616 13.3723 9.24446 13.594C9.02277 13.8231 8.83802 14.03 8.83802 14.0596C8.83802 14.0966 8.58676 14.3995 8.28378 14.7321C7.98079 15.072 7.72954 15.3898 7.72954 15.4341C7.72954 15.4859 7.69998 15.5302 7.66303 15.5302C7.63347 15.5302 7.04227 16.2027 6.35501 17.023C5.66775 17.8506 5.02483 18.6044 4.92137 18.7079C4.81792 18.8113 4.63317 19.0256 4.51493 19.1882C4.39669 19.3508 4.14543 19.6538 3.94591 19.8533C3.64292 20.1711 3.36949 20.5553 3.36949 20.6736C3.36949 20.6883 4.00503 20.7031 4.78836 20.7031H6.20722L6.41413 20.5036C6.52498 20.3927 6.62105 20.2671 6.62105 20.2302C6.62105 20.1858 6.85753 19.905 7.13834 19.602C7.42655 19.299 7.65564 19.0108 7.65564 18.9665C7.65564 18.9222 7.78126 18.7744 7.92906 18.634C8.07686 18.4935 8.33551 18.2053 8.49809 17.9984C8.66805 17.7915 9.29619 17.0377 9.90217 16.3135L11.0107 15.0055L11.1806 15.2124C11.5945 15.7076 11.9418 16.1805 11.9418 16.2544C11.9418 16.2987 11.9861 16.3653 12.0378 16.3948C12.0896 16.4244 12.3704 16.7865 12.666 17.1929C12.9616 17.5994 13.3385 18.1093 13.5158 18.331C13.6858 18.5453 13.8927 18.8335 13.9666 18.9591C14.0479 19.0847 14.2844 19.4025 14.4913 19.6685C14.6982 19.9346 14.9642 20.2745 15.0825 20.4223L15.282 20.7031H18.0828C19.6273 20.7031 20.8836 20.6883 20.8836 20.6662C20.8836 20.6144 19.5829 18.8113 19.413 18.6192C19.3243 18.5305 19.2578 18.427 19.2578 18.3901C19.2578 18.331 18.8513 17.7693 18.7405 17.6733C18.6001 17.555 18.1493 16.8973 18.1493 16.816C18.1493 16.7569 18.1197 16.7126 18.0828 16.7126C18.0458 16.7126 17.7059 16.2766 17.329 15.7371C16.9447 15.1977 16.5087 14.6138 16.3609 14.4365C16.2058 14.2591 16.0801 14.0744 16.0801 14.03C16.0727 13.9783 15.8436 13.6606 15.5628 13.3132C15.282 12.9659 15.0455 12.6481 15.0455 12.5964C15.0455 12.5521 15.0234 12.5003 14.9864 12.4856C14.9569 12.4708 14.7499 12.2121 14.5282 11.9091C14.3065 11.6062 14.0775 11.318 14.011 11.2736C13.8705 11.1554 13.9814 10.9411 14.4543 10.4459C14.6391 10.2464 14.8977 9.95082 15.0086 9.79563C15.1268 9.64045 15.415 9.30051 15.6515 9.04925C15.888 8.798 16.0801 8.56891 16.0801 8.53196C16.0801 8.5024 16.3166 8.22159 16.5974 7.9186C16.8856 7.61561 17.1147 7.32741 17.1147 7.27568C17.1147 7.23134 17.1738 7.14266 17.2551 7.09093C17.4325 6.9653 19.7751 4.15714 19.7751 4.06846C19.7751 4.03151 19.1543 4.00195 18.3488 4.00195H16.9152L16.5161 4.49708C16.3018 4.77789 16.1023 5.01437 16.0727 5.03654C16.0506 5.05871 15.6737 5.5021 15.2377 6.03418C14.7943 6.55886 14.3804 7.04659 14.3139 7.10571C14.24 7.16483 14.0627 7.37914 13.9149 7.58605C13.7745 7.78558 13.501 8.10335 13.3163 8.28809C13.1316 8.46545 12.9764 8.64281 12.9764 8.67976C12.9764 8.71671 12.8803 8.85712 12.7621 8.99014L12.5551 9.234L12.0452 8.51718C11.7718 8.12552 11.3875 7.60083 11.188 7.34958C10.9959 7.09093 10.8333 6.86923 10.8333 6.84706C10.8333 6.79534 10.3308 6.13024 10.0278 5.77553C9.90217 5.63512 9.79871 5.47993 9.79871 5.4282C9.79871 5.37647 9.73959 5.28041 9.6583 5.20651C9.5844 5.13261 9.34792 4.82962 9.14101 4.53403L8.74934 4.00195H5.87467C4.29323 4.00195 3 4.02412 3 4.04629ZM7.86255 5.84943C7.95123 5.93072 8.33551 6.44062 8.71978 6.98008C9.09667 7.51216 9.49572 8.04423 9.59918 8.16247C9.71003 8.27332 9.84305 8.47284 9.90956 8.60586C9.96868 8.73149 10.1386 8.97536 10.2791 9.13793C10.4268 9.30051 10.6338 9.56655 10.7446 9.72913C11.1658 10.3573 11.8088 11.2071 11.8753 11.2293C11.9122 11.2441 11.9418 11.2884 11.9418 11.3327C11.9418 11.4214 12.3926 12.0643 12.7325 12.4486C12.8655 12.5964 12.9764 12.759 12.9764 12.8033C12.9764 12.8551 13.1537 13.1137 13.3754 13.3797C13.5897 13.6458 13.9888 14.1852 14.2696 14.5695C14.543 14.9538 14.846 15.3528 14.9421 15.4637C15.0381 15.5671 15.1194 15.678 15.1194 15.7223C15.1194 15.7593 15.3559 16.0844 15.6367 16.4465C15.9249 16.8013 16.154 17.1412 16.154 17.1855C16.154 17.2373 16.2205 17.3407 16.3092 17.422C16.4718 17.5698 17.3364 18.7374 17.3364 18.8113C17.3364 18.8335 17.063 18.8557 16.7304 18.8557H16.1171L15.6367 18.2127C15.3707 17.8654 15.1268 17.5181 15.0825 17.459C14.9051 17.1708 14.6243 16.8013 14.3583 16.4909C14.2031 16.3061 14.0183 16.0623 13.9592 15.9366C13.8927 15.8184 13.804 15.678 13.7523 15.6263C13.7006 15.5745 13.3459 15.109 12.969 14.5917C12.5921 14.067 12.193 13.5423 12.0748 13.4241C11.9639 13.2984 11.8679 13.1654 11.8679 13.1211C11.8679 13.0841 11.6388 12.759 11.3506 12.3969C11.0698 12.0422 10.8333 11.717 10.8333 11.6801C10.8333 11.6505 10.7742 11.5618 10.6929 11.4879C10.619 11.414 10.2495 10.9263 9.87261 10.4016C9.49572 9.87692 9.08928 9.34485 8.98582 9.21922C8.87497 9.09359 8.73456 8.88668 8.66805 8.76844C8.60893 8.64281 8.44636 8.4285 8.32073 8.28809C8.01774 7.95555 7.65564 7.43826 7.65564 7.3348C7.65564 7.29046 7.62608 7.25351 7.59652 7.25351C7.53001 7.25351 6.47325 5.82726 6.47325 5.74597C6.47325 5.7238 6.74668 5.70163 7.08661 5.70163C7.60391 5.70163 7.72954 5.7238 7.86255 5.84943Z" fill="#0084D0"/>
</svg>
