<svg width="38" height="38" viewBox="0 0 38 38" fill="none" xmlns="http://www.w3.org/2000/svg">
<path d="M12.2085 6.43918C11.3107 6.76636 10.5354 7.05264 10.4946 7.05264C9.92327 7.09354 10.821 8.23866 12.943 10.2835L15.4731 12.7783L14.1672 14.0461L12.9022 15.3548L10.1681 12.7374C7.22999 9.91545 7.10757 9.91545 6.25062 12.9419C5.27124 16.5817 7.22999 20.5897 10.9435 22.3891C12.943 23.3707 13.5959 23.4934 15.5955 23.2889L17.9623 23.0435L22.4103 27.5013C25.022 30.1187 27.2255 32 27.6744 32C28.5722 32 32 28.4419 32 27.5013C32 27.1741 30.0413 24.9248 27.6336 22.4709L23.2264 18.0949V15.1094C23.2264 12.6147 23.0632 11.8785 22.0838 10.2426C20.0843 6.84816 15.6771 5.13047 12.2085 6.43918ZM19.2681 11.3469C20.4107 12.8192 20.6964 14.864 20.0027 16.868L19.3906 18.6266L23.961 23.1253C27.552 26.6834 28.3682 27.7058 27.756 27.8285C27.2255 27.9512 25.7157 26.7651 22.6551 23.7387L18.3296 19.4854L16.6157 20.0171C14.2896 20.835 12.0861 20.1807 10.3722 18.2585C8.73986 16.3772 9.10713 15.9683 10.9843 17.645C11.8004 18.3403 12.6574 18.9129 12.9022 18.9129C13.5143 18.9129 18.9417 13.3917 18.9417 12.8192C18.9417 12.5738 18.248 11.5922 17.4318 10.6925L15.8811 8.97482L17.187 9.62917C17.8807 9.99725 18.8193 10.7743 19.2681 11.3469Z" fill="#0084D0"/>
</svg>
