<svg width="24" height="24" viewBox="0 0 24 24" fill="none" xmlns="http://www.w3.org/2000/svg">
<path d="M18.409 22.0008H18.779C19.089 21.9908 19.379 21.8308 19.559 21.5708L21.829 18.3008C21.979 18.0808 22.039 17.8108 21.989 17.5408C21.9645 17.4092 21.9138 17.2838 21.8399 17.1722C21.7661 17.0605 21.6705 16.9648 21.559 16.8908L16.649 13.6208C16.239 13.3508 15.689 13.4108 15.359 13.7708L13.479 15.8008C12.719 15.3508 11.449 14.5408 10.449 13.5408C9.44901 12.5408 8.63901 11.2708 8.18901 10.5208L10.219 8.64078C10.579 8.31078 10.649 7.76078 10.369 7.35078L7.09901 2.44078C6.94901 2.22078 6.71901 2.06078 6.45901 2.01078C6.18901 1.96078 5.91901 2.01078 5.69901 2.17078L2.42901 4.43078C2.16901 4.61078 2.00901 4.90078 1.99901 5.21078C1.96901 5.92078 1.83901 12.2508 6.78901 17.1908C11.249 21.6508 16.829 21.9908 18.409 21.9908V22.0008Z" fill="white"/>
</svg>
