<svg width="14" height="20" viewBox="0 0 14 20" fill="none" xmlns="http://www.w3.org/2000/svg">
<path d="M3.62258 2.04138C3.41487 2.11309 3.28629 2.20458 3.05385 2.44444C1.51827 4.04183 0.425313 6.37611 0.09891 8.76726C0.0222548 9.33847 0 9.67724 0 10.3424C0 11.2029 0.0445095 11.6629 0.200293 12.4912C0.553896 14.3532 1.41194 16.1534 2.63348 17.59C2.92774 17.9362 3.41734 18.4209 3.57065 18.5247C3.80804 18.6805 3.95393 18.725 4.25313 18.7226C4.46579 18.7226 4.53997 18.7102 4.66114 18.6632C4.87379 18.5816 6.69621 17.3601 6.79759 17.234C6.99294 16.9842 7.06712 16.6529 6.98552 16.3759C6.94348 16.2251 5.75656 13.8562 5.6354 13.6781C5.48456 13.4531 5.23481 13.3196 4.9455 13.3023C4.78725 13.2949 4.66855 13.3122 4.13197 13.4333C3.46432 13.5817 3.36294 13.5916 3.24178 13.5001C3.13545 13.421 3.07363 13.3097 2.96977 12.9932C2.76454 12.375 2.60381 11.6431 2.54941 11.0867C2.51479 10.7455 2.51479 9.95418 2.54693 9.60553C2.58402 9.21483 2.65821 8.81672 2.78432 8.31475C3.00687 7.42703 3.06621 7.28114 3.2393 7.20201C3.35552 7.15008 3.28381 7.14266 4.12949 7.30092C4.67597 7.40478 4.85648 7.40725 5.05183 7.31328C5.20761 7.2391 5.3906 7.07096 5.45736 6.93743C5.50929 6.83852 6.16457 5.46367 6.5429 4.66744L6.71352 4.30889V4.06162C6.71352 3.83907 6.7061 3.80198 6.64428 3.67834C6.51817 3.43601 6.55526 3.46321 5.14579 2.56066C4.61415 2.21942 4.3743 2.08094 4.25808 2.04633C4.06026 1.98451 3.79073 1.98203 3.62258 2.04138Z" fill="white"/>
<path d="M10.8307 1.32265C10.6274 1.36421 10.479 1.54527 10.4805 1.75304C10.4805 1.89105 10.5161 1.95635 10.6912 2.15374C11.5 3.0605 11.9898 4.17207 12.1233 5.40386C12.1886 5.99006 12.1605 6.52581 12.0358 7.14764C11.8488 8.08261 11.4199 8.96563 10.7966 9.70322C10.5532 9.99113 10.5458 10.0015 10.5205 10.0891C10.4434 10.3532 10.623 10.613 10.899 10.6382C11.0756 10.6545 11.1795 10.5922 11.3813 10.3562C11.7983 9.86646 12.064 9.46428 12.3356 8.91369C12.6576 8.2607 12.8609 7.57357 12.9663 6.79146C12.996 6.57034 12.999 6.47536 13.0004 6.01233C13.0004 5.46173 12.9886 5.30145 12.9173 4.88443C12.7036 3.6289 12.1471 2.46984 11.3205 1.55565C11.181 1.40131 11.1231 1.35976 11.0088 1.33008C10.9153 1.30633 10.9198 1.30633 10.8307 1.32265Z" fill="white"/>
<path d="M9.56478 2.53626C9.42527 2.58226 9.3021 2.69505 9.26203 2.81526C9.24867 2.85385 9.23828 2.91915 9.23828 2.96367C9.23828 3.09427 9.27835 3.17144 9.43863 3.34953C9.99071 3.958 10.3038 4.64364 10.4285 5.51331C10.4567 5.71366 10.4537 6.288 10.4226 6.49577C10.2949 7.3402 9.95509 8.05849 9.39411 8.66845C9.3021 8.76788 9.25757 8.85989 9.24422 8.96972C9.2175 9.19826 9.40301 9.41791 9.6375 9.43571C9.79778 9.4461 9.87495 9.41345 10.0115 9.27692C10.3959 8.88809 10.7654 8.29446 10.9954 7.69786C11.2477 7.04636 11.3575 6.29393 11.3011 5.62461C11.2091 4.53827 10.8173 3.60331 10.1154 2.80191C9.92541 2.58375 9.85269 2.53626 9.69983 2.52884C9.6464 2.52587 9.58555 2.52884 9.56478 2.53626Z" fill="white"/>
<path d="M8.26862 3.77005C8.10389 3.83387 8.00148 3.99415 8.00148 4.18559C8 4.32658 8.03117 4.38743 8.18106 4.54919C8.44967 4.8371 8.62034 5.16656 8.7079 5.56281C8.75094 5.75574 8.75539 6.17573 8.71532 6.37163C8.63518 6.76639 8.46451 7.10476 8.18699 7.41345C8.02671 7.59154 8 7.64645 8 7.79931C8 7.89281 8.00742 7.93139 8.03413 7.98037C8.1395 8.17923 8.36508 8.26976 8.5773 8.19853C8.78359 8.12877 9.20507 7.57076 9.38019 7.13593C9.53602 6.74562 9.60874 6.38499 9.61022 5.99319C9.61022 5.27787 9.3698 4.61004 8.90974 4.05796C8.77469 3.8962 8.6708 3.8027 8.58324 3.76857C8.49865 3.73295 8.36063 3.73443 8.26862 3.77005Z" fill="white"/>
</svg>
