<svg width="20" height="20" viewBox="0 0 20 20" fill="none" xmlns="http://www.w3.org/2000/svg">
<g clip-path="url(#clip0_8970_5340)">
<path d="M8.00391 0H20.0039V20H8L8.00391 0Z" fill="#FF0000"/>
<path d="M0.00390625 0H8.00391V20H0L0.00390625 0Z" fill="#006600"/>
<path fill-rule="evenodd" clip-rule="evenodd" d="M11.4766 12.7578C10.1328 12.7188 3.97656 8.875 3.9375 8.26172L4.27344 7.69531C4.88281 8.58203 11.1797 12.3203 11.7969 12.1875L11.4766 12.7578Z" fill="#FFFF00" stroke="black" stroke-width="0.0875" stroke-linecap="round" stroke-linejoin="round"/>
<path fill-rule="evenodd" clip-rule="evenodd" d="M4.20197 7.61719C4.08087 7.94141 5.80743 9.00781 7.88556 10.2734C9.96368 11.5352 11.7527 12.3164 11.8895 12.207L11.9481 12.0938C11.922 12.1354 11.8621 12.1432 11.7684 12.1172C11.2059 11.9531 9.74103 11.2813 7.92853 10.1836C6.11603 9.08594 4.5379 8.07031 4.29572 7.64063C4.27623 7.60053 4.26684 7.55627 4.26837 7.51172H4.26056L4.20978 7.60156L4.20197 7.61719ZM11.5067 12.7734C11.4832 12.8164 11.4402 12.8164 11.3621 12.8125C10.8582 12.7539 9.33087 12.0117 7.534 10.9336C5.43243 9.67578 3.69806 8.53125 3.88947 8.23438L3.94025 8.14062L3.94806 8.14453C3.78009 8.65234 7.36993 10.7031 7.58087 10.8359C9.65509 12.125 11.409 12.875 11.5652 12.6797L11.5067 12.7734Z" fill="#FFFF00" stroke="black" stroke-width="0.0875" stroke-linecap="round" stroke-linejoin="round"/>
<path fill-rule="evenodd" clip-rule="evenodd" d="M8.00781 8.63281C9.34766 8.62109 11.0078 8.44922 11.9609 8.07031L11.7578 7.73437C11.1914 8.04687 9.52734 8.25391 7.99609 8.28125C6.18359 8.26562 4.90625 8.09766 4.26562 7.66797L4.07031 8.02344C5.25 8.51953 6.45313 8.62891 8.00781 8.63281Z" fill="#FFFF00" stroke="black" stroke-width="0.0875" stroke-linecap="round" stroke-linejoin="round"/>
<path fill-rule="evenodd" clip-rule="evenodd" d="M12.0234 8.07813C11.9883 8.12891 11.3672 8.34375 10.4492 8.5C9.6398 8.62139 8.82237 8.68146 8.00391 8.67969C7.2202 8.68322 6.43716 8.63363 5.66016 8.53125C4.70312 8.37891 4.20312 8.16797 4.01953 8.09375L4.06641 8.00391C4.58587 8.20865 5.1272 8.35283 5.67969 8.43359C6.45026 8.53438 7.22679 8.58267 8.00391 8.57813C8.81584 8.57863 9.62669 8.51856 10.4297 8.39844C11.3672 8.24609 11.8828 8.05078 11.9531 7.96094L12.0234 8.07813ZM11.8398 7.73438C11.7383 7.8125 11.2305 7.99609 10.3398 8.13672C9.57006 8.24722 8.7933 8.30205 8.01562 8.30078C7.26573 8.30647 6.5164 8.25817 5.77344 8.15625C4.86328 8.03906 4.38281 7.82422 4.21094 7.76172L4.26172 7.67187C4.39453 7.74219 4.86328 7.92969 5.78516 8.0625C6.52471 8.15835 7.2699 8.20403 8.01562 8.19922C8.78681 8.20023 9.55705 8.1454 10.3203 8.03516C11.2187 7.91016 11.7031 7.68359 11.7773 7.625L11.8398 7.73438ZM3.59766 10.25C4.42578 10.6953 6.25781 10.9219 7.99609 10.9375C9.57812 10.9375 11.6406 10.6914 12.4102 10.2813L12.3867 9.83594C12.1484 10.2148 9.94141 10.5781 7.98047 10.5625C6.01953 10.5469 4.19922 10.2422 3.59375 9.85156V10.25" fill="#FFFF00"/>
<path d="M3.59766 10.25C4.42578 10.6953 6.25781 10.9219 7.99609 10.9375C9.57812 10.9375 11.6406 10.6914 12.4102 10.2813L12.3867 9.83594C12.1484 10.2148 9.94141 10.5781 7.98047 10.5625C6.01953 10.5469 4.19922 10.2422 3.59375 9.85156V10.25M12.0234 8.07813C11.9883 8.12891 11.3672 8.34375 10.4492 8.5C9.6398 8.62139 8.82237 8.68146 8.00391 8.67969C7.2202 8.68322 6.43715 8.63363 5.66016 8.53125C4.70312 8.37891 4.20312 8.16797 4.01953 8.09375L4.06641 8.00391C4.58587 8.20865 5.1272 8.35283 5.67969 8.43359C6.45026 8.53438 7.22679 8.58267 8.00391 8.57813C8.81584 8.57863 9.62669 8.51856 10.4297 8.39844C11.3672 8.24609 11.8828 8.05078 11.9531 7.96094L12.0234 8.07813ZM11.8398 7.73438C11.7383 7.8125 11.2305 7.99609 10.3398 8.13672C9.57006 8.24722 8.7933 8.30205 8.01562 8.30078C7.26573 8.30647 6.5164 8.25817 5.77344 8.15625C4.86328 8.03906 4.38281 7.82422 4.21094 7.76172L4.26172 7.67187C4.39453 7.74219 4.86328 7.92969 5.78516 8.0625C6.52471 8.15835 7.2699 8.20403 8.01562 8.19922C8.78681 8.20023 9.55705 8.1454 10.3203 8.03516C11.2187 7.91016 11.7031 7.68359 11.7773 7.625L11.8398 7.73438Z" stroke="black" stroke-width="0.0875" stroke-linecap="round" stroke-linejoin="round"/>
<path fill-rule="evenodd" clip-rule="evenodd" d="M12.4492 10.1875V10.293C12.332 10.4336 11.6055 10.6445 10.6953 10.7891C9.79378 10.92 8.88364 10.9827 7.97266 10.9766C6.90234 10.9766 6.05078 10.8984 5.38672 10.7969C4.74958 10.7243 4.12684 10.5571 3.53906 10.3008V10.1758C3.94531 10.4453 5.03516 10.6406 5.40234 10.6992C6.05859 10.8008 6.90625 10.875 7.97266 10.875C9.09375 10.875 9.99219 10.7969 10.6797 10.6914C11.3359 10.5977 12.2656 10.3516 12.4492 10.1875ZM12.4492 9.80859V9.91797C12.332 10.0547 11.6055 10.2656 10.6953 10.4102C9.79378 10.5411 8.88364 10.6038 7.97266 10.5977C6.90234 10.5977 6.05078 10.5195 5.39062 10.4219C4.75196 10.3485 4.12786 10.1799 3.53906 9.92187V9.79688C3.94531 10.0664 5.03516 10.2656 5.40234 10.3203C6.0625 10.4219 6.91016 10.5 7.97266 10.5C9.09375 10.5 9.99219 10.4219 10.6797 10.3125C11.3359 10.2187 12.2656 9.97266 12.4492 9.80859ZM7.98828 12.6797C6.08984 12.668 4.46094 12.1641 4.11719 12.0781L4.36719 12.4688C4.97266 12.7266 6.5625 13.1094 8.00781 13.0664C9.45312 13.0234 10.7148 12.9102 11.6016 12.4805L11.8594 12.0703C11.2539 12.3555 9.19141 12.6797 7.99219 12.6797" fill="#FFFF00"/>
<path d="M7.98828 12.6797C6.08984 12.668 4.46094 12.1641 4.11719 12.0781L4.36719 12.4688C4.97266 12.7266 6.5625 13.1094 8.00781 13.0664C9.45313 13.0234 10.7148 12.9102 11.6016 12.4805L11.8594 12.0703C11.2539 12.3555 9.19141 12.6797 7.99219 12.6797M12.4492 10.1875V10.293C12.332 10.4336 11.6055 10.6445 10.6953 10.7891C9.79378 10.92 8.88364 10.9827 7.97266 10.9766C6.90234 10.9766 6.05078 10.8984 5.38672 10.7969C4.74958 10.7243 4.12684 10.5571 3.53906 10.3008V10.1758C3.94531 10.4453 5.03516 10.6406 5.40234 10.6992C6.05859 10.8008 6.90625 10.875 7.97266 10.875C9.09375 10.875 9.99219 10.7969 10.6797 10.6914C11.3359 10.5977 12.2656 10.3516 12.4492 10.1875ZM12.4492 9.80859V9.91797C12.332 10.0547 11.6055 10.2656 10.6953 10.4102C9.79378 10.5411 8.88364 10.6038 7.97266 10.5977C6.90234 10.5977 6.05078 10.5195 5.39063 10.4219C4.75196 10.3485 4.12786 10.1799 3.53906 9.92187V9.79688C3.94531 10.0664 5.03516 10.2656 5.40234 10.3203C6.0625 10.4219 6.91016 10.5 7.97266 10.5C9.09375 10.5 9.99219 10.4219 10.6797 10.3125C11.3359 10.2187 12.2656 9.97266 12.4492 9.80859Z" stroke="black" stroke-width="0.0875" stroke-linecap="round" stroke-linejoin="round"/>
<path fill-rule="evenodd" clip-rule="evenodd" d="M11.6992 12.3867L11.582 12.5586C11.1388 12.7056 10.6859 12.8218 10.2266 12.9062C9.48951 13.0419 8.74161 13.1099 7.99219 13.1094C6.30859 13.0859 4.92969 12.7578 4.28125 12.4766L4.22656 12.3867L4.23828 12.3711L4.32422 12.4062C5.51031 12.7989 6.75063 13.0032 8 13.0117C8.78125 13.0156 9.5625 12.9219 10.1914 12.8125C11.1602 12.6172 11.5508 12.4727 11.6719 12.4062L11.6992 12.3867ZM11.9219 12.0195H11.9258L11.8398 12.168C11.6172 12.2461 11.0078 12.4258 10.1211 12.5508C9.53516 12.6289 9.17188 12.707 8.01172 12.7305C6.68245 12.7161 5.36146 12.519 4.08594 12.1445L4.03906 12.0469C5.33462 12.4026 6.66864 12.5993 8.01172 12.6328C9.07422 12.6094 9.52734 12.5312 10.1055 12.4492C11.1406 12.293 11.6602 12.1211 11.8164 12.0703L11.8125 12.0625L11.9219 12.0195Z" fill="#FFFF00" stroke="black" stroke-width="0.075" stroke-linecap="round" stroke-linejoin="round"/>
<path fill-rule="evenodd" clip-rule="evenodd" d="M11.9453 9.89844C11.9531 11.1484 11.3125 12.2734 10.7969 12.7695C10.0395 13.5062 9.0291 13.9254 7.97266 13.9414C6.71094 13.9648 5.52344 13.1406 5.20312 12.7813C4.57812 12.0742 4.07031 11.1797 4.05469 9.96875C4.13281 8.60156 4.66797 7.65234 5.44531 7C6.19701 6.38041 7.14309 6.04568 8.11719 6.05469C9.10938 6.08203 10.2734 6.57031 11.0742 7.53906C11.5977 8.17188 11.8281 8.85937 11.9453 9.90234V9.89844ZM7.98437 5.61719C10.4062 5.61719 12.3984 7.58984 12.3984 10.0039C12.3912 11.1698 11.923 12.2856 11.096 13.1075C10.2689 13.9294 9.15033 14.3906 7.98437 14.3906C5.5625 14.3906 3.58594 12.4219 3.58594 10.0039C3.58594 7.58594 5.5625 5.61719 7.98437 5.61719Z" fill="#FFFF00" stroke="black" stroke-width="0.0875" stroke-linecap="round" stroke-linejoin="round"/>
<path fill-rule="evenodd" clip-rule="evenodd" d="M7.99609 5.60156C10.418 5.60156 12.3945 7.58203 12.3945 10.0039C12.3945 12.4258 10.418 14.4062 7.99609 14.4062C6.8288 14.4032 5.71025 13.9378 4.88521 13.112C4.06017 12.2863 3.59581 11.1673 3.59375 10C3.59684 8.83338 4.06165 7.71542 4.88658 6.89049C5.71151 6.06556 6.82947 5.60075 7.99609 5.59766V5.60156ZM3.69141 10.0039C3.69141 12.3711 5.63672 14.3086 7.99609 14.3086C10.3555 14.3086 12.2969 12.3711 12.2969 10.0039C12.2969 7.63672 10.3555 5.70312 7.99609 5.70312C6.85636 5.70724 5.76442 6.16155 4.95814 6.9671C4.15186 7.77265 3.69655 8.86418 3.69141 10.0039Z" fill="#FFFF00" stroke="black" stroke-width="0.0875" stroke-linecap="round" stroke-linejoin="round"/>
<path fill-rule="evenodd" clip-rule="evenodd" d="M8.00391 5.96875C10.2109 5.96875 12.0312 7.78516 12.0312 10C12.0312 12.2148 10.2109 14.0312 8.00391 14.0312C6.93534 14.0282 5.91137 13.6026 5.15541 12.8473C4.39945 12.0921 3.97287 11.0686 3.96875 10C3.96875 7.78516 5.78906 5.96875 8 5.96875H8.00391ZM4.06641 10C4.06641 12.1641 5.84375 13.9336 8.00391 13.9336C10.1641 13.9336 11.9375 12.1641 11.9375 10C11.9375 7.83594 10.1602 6.06641 8 6.06641C5.83984 6.06641 4.06641 7.83594 4.06641 10Z" fill="#FFFF00" stroke="black" stroke-width="0.0875" stroke-linecap="round" stroke-linejoin="round"/>
<path fill-rule="evenodd" clip-rule="evenodd" d="M8.17578 5.58594H7.79688V14.4297H8.17578V5.58594Z" fill="#FFFF00" stroke="black" stroke-width="0.0875" stroke-linecap="round" stroke-linejoin="round"/>
<path fill-rule="evenodd" clip-rule="evenodd" d="M8.14063 5.53516H8.23828V14.4805H8.14063V5.53516ZM7.76562 5.53516H7.86328V14.4805H7.76562V5.53516Z" fill="#FFFF00" stroke="black" stroke-width="0.0875" stroke-linecap="round" stroke-linejoin="round"/>
<path fill-rule="evenodd" clip-rule="evenodd" d="M12.3984 10.1758V9.84375L12.1328 9.59766L10.6211 9.19531L8.44141 8.97266L5.82422 9.10547L3.95312 9.55078L3.57812 9.83203V10.1563L4.53125 9.72656L6.79688 9.375H8.97656L10.5781 9.55078L11.6875 9.82031L12.3984 10.1758Z" fill="#FFFF00" stroke="black" stroke-width="0.0875" stroke-linecap="round" stroke-linejoin="round"/>
<path fill-rule="evenodd" clip-rule="evenodd" d="M7.99609 9.32441C8.95113 9.3205 9.90447 9.40551 10.8438 9.57831C11.668 9.74237 12.25 9.94941 12.4453 10.1799V10.2971C12.2109 10.008 11.4297 9.79706 10.8242 9.67206C10.0312 9.51972 9.02734 9.42206 7.99609 9.42206C6.90234 9.42206 5.88672 9.52753 5.10547 9.67987C4.48047 9.80487 3.64453 10.051 3.53906 10.2971V10.1799C3.59766 10.008 4.21875 9.75409 5.09375 9.57831C6.05133 9.40459 7.0229 9.31959 7.99609 9.32441ZM7.99609 8.9455C8.95242 8.94181 9.90703 9.02681 10.8477 9.19941C11.668 9.36347 12.2539 9.5705 12.4492 9.80487V9.91816C12.2109 9.62909 11.4258 9.41816 10.8242 9.29706C10.0312 9.14081 9.02734 9.04316 7.99609 9.04316C7.02927 9.04016 6.06423 9.12647 5.11328 9.30097C4.50781 9.41816 3.63672 9.67597 3.53906 9.91816V9.80097C3.59766 9.633 4.23437 9.37128 5.09375 9.20331C6.05121 9.02828 7.02277 8.94197 7.99609 8.9455ZM7.97656 7.01972C9.61328 7.01191 11.043 7.25019 11.6953 7.58612L11.9336 7.99628C11.3672 7.69159 9.82422 7.37128 7.97656 7.42206C6.47266 7.42987 4.86719 7.58612 4.05859 8.01581L4.34375 7.53925C5.00781 7.1955 6.57031 7.02362 7.97656 7.01972Z" fill="#FFFF00" stroke="black" stroke-width="0.0875" stroke-linecap="round" stroke-linejoin="round"/>
<path fill-rule="evenodd" clip-rule="evenodd" d="M7.99609 7.36117C8.93359 7.36117 9.83203 7.41195 10.5508 7.54086C11.2188 7.66586 11.8594 7.85336 11.9492 7.95492L12.0195 8.07992C11.7969 7.93539 11.2461 7.77132 10.5352 7.63851C9.69569 7.50476 8.84599 7.44593 7.99609 7.46273C6.94141 7.46273 6.12109 7.51351 5.41797 7.63851C4.67578 7.77523 4.16016 7.97445 4.03125 8.0682L4.10156 7.93929C4.34766 7.81039 4.74219 7.65804 5.40234 7.54086C6.12891 7.40804 6.95312 7.36898 7.99609 7.36117ZM7.99609 6.98617C8.8211 6.97319 9.64571 7.03069 10.4609 7.15804C11.0039 7.26351 11.5391 7.42757 11.7383 7.57211L11.8398 7.73617C11.6641 7.54086 11.0039 7.35726 10.418 7.2557C9.73828 7.13851 8.89062 7.09164 7.99609 7.08382C7.05859 7.08382 6.19141 7.14242 5.51953 7.26351C4.87891 7.38851 4.46484 7.53304 4.28906 7.64632L4.37891 7.5057C4.62109 7.3807 5.01172 7.26351 5.50391 7.16586C6.17969 7.04476 7.05469 6.98617 7.99609 6.98617ZM10.1836 11.8338C9.46136 11.7092 8.72883 11.6543 7.99609 11.6698C5.26562 11.701 4.38672 12.2284 4.27734 12.3885L4.07422 12.0565C4.76563 11.5526 6.25 11.2713 8.00781 11.2987C8.91927 11.3117 9.70573 11.3794 10.3672 11.5018L10.1797 11.8338" fill="#FFFF00"/>
<path d="M10.1836 11.8338C9.46136 11.7092 8.72883 11.6543 7.99609 11.6698C5.26562 11.701 4.38672 12.2284 4.27734 12.3885L4.07422 12.0565C4.76563 11.5526 6.25 11.2713 8.00781 11.2987C8.91927 11.3117 9.70573 11.3794 10.3672 11.5018L10.1797 11.8338M7.99609 7.36117C8.93359 7.36117 9.83203 7.41195 10.5508 7.54086C11.2188 7.66586 11.8594 7.85336 11.9492 7.95492L12.0195 8.07992C11.7969 7.93539 11.2461 7.77132 10.5352 7.63851C9.69569 7.50476 8.84599 7.44593 7.99609 7.46273C6.94141 7.46273 6.12109 7.51351 5.41797 7.63851C4.67578 7.77523 4.16016 7.97445 4.03125 8.0682L4.10156 7.93929C4.34766 7.81039 4.74219 7.65804 5.40234 7.54086C6.12891 7.40804 6.95312 7.36898 7.99609 7.36117ZM7.99609 6.98617C8.8211 6.97319 9.64571 7.03069 10.4609 7.15804C11.0039 7.26351 11.5391 7.42757 11.7383 7.57211L11.8398 7.73617C11.6641 7.54086 11.0039 7.35726 10.418 7.2557C9.73828 7.13851 8.89062 7.09164 7.99609 7.08382C7.05859 7.08382 6.19141 7.14242 5.51953 7.26351C4.87891 7.38851 4.46484 7.53304 4.28906 7.64632L4.37891 7.5057C4.62109 7.3807 5.01172 7.26351 5.50391 7.16586C6.17969 7.04476 7.05469 6.98617 7.99609 6.98617Z" stroke="black" stroke-width="0.0875" stroke-linecap="round" stroke-linejoin="round"/>
<path fill-rule="evenodd" clip-rule="evenodd" d="M7.97656 11.6202C8.73438 11.6319 9.48047 11.6592 10.2031 11.7959L10.1484 11.8897C9.4326 11.7662 8.70678 11.7099 7.98047 11.7217C6.97266 11.7139 5.94922 11.8077 5.06641 12.0616C4.78516 12.1397 4.32422 12.3194 4.27344 12.4678L4.22266 12.3819C4.23828 12.2959 4.51953 12.1123 5.04297 11.9678C6.05859 11.6748 7.00781 11.628 7.97266 11.6162L7.97656 11.6202ZM8.01172 11.2373C8.81181 11.2366 9.61043 11.3059 10.3984 11.4444L10.3437 11.542C9.57578 11.4015 8.79632 11.3335 8.01562 11.3389C7.00391 11.3389 5.93359 11.4131 4.95703 11.6944C4.64453 11.7881 4.09766 11.9834 4.08203 12.1397L4.03125 12.0498C4.04297 11.9092 4.51172 11.7217 4.9375 11.5967C5.94051 11.3344 6.97524 11.2134 8.01172 11.2373Z" fill="#FFFF00" stroke="black" stroke-width="0.075" stroke-linecap="round" stroke-linejoin="round"/>
<path fill-rule="evenodd" clip-rule="evenodd" d="M11.8867 12.1055L11.5586 12.6133L10.6172 11.7773L8.17188 10.1367L5.41797 8.62109L3.98438 8.13281L4.28906 7.56641L4.39453 7.51172L5.28516 7.73437L8.21484 9.24609L9.90625 10.3125L11.3242 11.3281L11.9023 11.9961L11.8867 12.1055Z" fill="#FFFF00" stroke="black" stroke-width="0.0875" stroke-linecap="round" stroke-linejoin="round"/>
<path fill-rule="evenodd" clip-rule="evenodd" d="M3.9375 8.14307C4.19141 7.9751 6.03516 8.79541 7.96094 9.95947C9.88672 11.1235 11.7266 12.4438 11.5625 12.6938L11.5078 12.7759L11.4805 12.7954C11.4883 12.7954 11.5156 12.7563 11.4805 12.6665C11.3945 12.397 10.0937 11.3579 7.92578 10.0493C5.81641 8.7915 4.05859 8.03369 3.88281 8.25244L3.9375 8.14307ZM11.957 12.0962C12.1133 11.7837 10.4062 10.4946 8.28516 9.24072C6.11719 8.01026 4.55078 7.2876 4.26562 7.50244L4.20312 7.61963C4.20052 7.61963 4.20573 7.61312 4.21875 7.6001C4.26953 7.55713 4.35547 7.56104 4.39453 7.56104C4.88672 7.56494 6.29297 8.20947 8.26172 9.34229C9.125 9.84229 11.9102 11.6313 11.8984 12.1313C11.8984 12.1743 11.9023 12.1821 11.8867 12.2056L11.957 12.0962Z" fill="#FFFF00" stroke="black" stroke-width="0.0875" stroke-linecap="round" stroke-linejoin="round"/>
<path d="M5.35938 10.4854C5.36077 10.8303 5.43018 11.1715 5.56364 11.4895C5.69711 11.8076 5.892 12.0961 6.13715 12.3387C6.37991 12.5852 6.66903 12.7812 6.98788 12.9155C7.30672 13.0497 7.64898 13.1196 7.99494 13.1209C8.34176 13.1219 8.68533 13.054 9.00575 12.9213C9.32616 12.7885 9.61706 12.5936 9.86161 12.3476C10.1065 12.1041 10.3009 11.8147 10.4336 11.4959C10.5663 11.177 10.6347 10.8352 10.6349 10.4898V6.96983L5.35938 6.96094V10.4854Z" fill="white" stroke="black" stroke-width="0.0995558"/>
<path d="M5.46875 10.4915C5.4687 10.8226 5.53472 11.1503 5.66293 11.4556C5.79114 11.7609 5.97897 12.0375 6.21542 12.2692C6.6886 12.7449 7.33115 13.0134 8.00209 13.0159C8.67175 13.0158 9.31412 12.7505 9.78876 12.2781C10.0244 12.046 10.2114 11.7692 10.3389 11.464C10.4663 11.1587 10.5316 10.8311 10.531 10.5004V7.07812H5.46875V10.4915ZM9.5132 8.10479V10.2781L9.50876 10.5048C9.51077 10.7034 9.47241 10.9004 9.39601 11.0837C9.31961 11.2671 9.20676 11.433 9.06431 11.5715C8.78168 11.8551 8.39804 12.0149 7.99764 12.0159C7.57986 12.0159 7.21098 11.8381 6.93542 11.5626C6.6518 11.2799 6.49196 10.8963 6.49097 10.4959V8.0959L9.5132 8.10479Z" fill="#FF0000" stroke="black" stroke-width="0.0711113"/>
<path d="M5.78125 7.97019C5.78569 7.72575 5.95903 7.66797 5.95903 7.66797C5.96347 7.66797 6.15014 7.73019 6.15014 7.97464L5.78125 7.97019Z" fill="#FFFF00"/>
<path d="M5.63361 7.67241L5.6025 7.95241H5.78917C5.78917 7.7213 5.96695 7.68575 5.96695 7.68575C5.97139 7.68575 6.14472 7.73464 6.14917 7.95241H6.33584L6.30028 7.66797L5.63361 7.67241ZM5.58917 7.95686H6.34472C6.35954 7.95686 6.36843 7.96723 6.37139 7.98797C6.37139 8.01167 6.3625 8.02352 6.34472 8.02352H5.58917C5.57435 8.02352 5.56546 8.01167 5.5625 7.98797C5.5625 7.96723 5.57287 7.95686 5.59361 7.95686H5.58917Z" fill="#FFFF00" stroke="black" stroke-width="0.0711113"/>
<path d="M5.86257 7.95342C5.86257 7.80675 5.96479 7.76675 5.96479 7.76675C5.96479 7.76675 6.06701 7.8112 6.06701 7.95342H5.86257ZM5.60479 7.55342H6.32924C6.34405 7.55638 6.35294 7.56824 6.3559 7.58898C6.3559 7.60379 6.34702 7.61268 6.32924 7.61564H5.60479C5.58998 7.61564 5.58109 7.60527 5.57812 7.58453C5.57812 7.56972 5.58701 7.56083 5.60479 7.55787V7.55342ZM5.62257 7.62009H6.30702C6.32183 7.62009 6.33072 7.63046 6.33368 7.6512C6.33665 7.67194 6.32776 7.68231 6.30702 7.68231H5.61812C5.60035 7.68231 5.59146 7.67194 5.59146 7.6512C5.59146 7.63046 5.60035 7.62009 5.61812 7.62009H5.62257ZM5.84479 7.14898H5.89813V7.18453H5.93813V7.14898H5.9959V7.18898H6.0359V7.14453H6.08924V7.23342C6.08924 7.2512 6.08183 7.26009 6.06701 7.26009H5.87146C5.85664 7.26009 5.84776 7.25268 5.84479 7.23786V7.14898ZM6.04924 7.26898L6.06257 7.55342H5.87146L5.88479 7.26453H6.04924" fill="#FFFF00"/>
<path d="M6.04924 7.26898L6.06257 7.55342H5.87146L5.88479 7.26453H6.04924M5.86257 7.95342C5.86257 7.80675 5.96479 7.76675 5.96479 7.76675C5.96479 7.76675 6.06701 7.8112 6.06701 7.95342H5.86257ZM5.60479 7.55342H6.32924C6.34405 7.55638 6.35294 7.56824 6.3559 7.58898C6.3559 7.60379 6.34702 7.61268 6.32924 7.61564H5.60479C5.58998 7.61564 5.58109 7.60527 5.57812 7.58453C5.57812 7.56972 5.58701 7.56083 5.60479 7.55787V7.55342ZM5.62257 7.62009H6.30702C6.32183 7.62009 6.33072 7.63046 6.33368 7.6512C6.33664 7.67194 6.32776 7.68231 6.30702 7.68231H5.61812C5.60035 7.68231 5.59146 7.67194 5.59146 7.6512C5.59146 7.63046 5.60035 7.62009 5.61812 7.62009H5.62257ZM5.84479 7.14898H5.89813V7.18453H5.93813V7.14898H5.9959V7.18898H6.0359V7.14453H6.08924V7.23342C6.08924 7.2512 6.08183 7.26009 6.06701 7.26009H5.87146C5.85664 7.26009 5.84776 7.25268 5.84479 7.23786V7.14898Z" stroke="black" stroke-width="0.0711113"/>
<path d="M5.8184 7.40234V7.55345H5.64062V7.40234H5.8184Z" fill="#FFFF00" stroke="black" stroke-width="0.0711113"/>
<path d="M6.28715 7.40234V7.55345H6.10938V7.40234H6.28715Z" fill="#FFFF00" stroke="black" stroke-width="0.0711113"/>
<path d="M5.60938 7.28516H5.66271V7.3296H5.70271V7.28516H5.75604V7.3296H5.79604V7.28516H5.84938V7.37405C5.84938 7.39182 5.84197 7.40071 5.82715 7.40071H5.63604C5.62991 7.39849 5.62435 7.39496 5.61974 7.39035C5.61513 7.38574 5.61159 7.38017 5.60938 7.37405V7.28516Z" fill="#FFFF00" stroke="black" stroke-width="0.0711113"/>
<path d="M6.07812 7.28516H6.13146V7.3296H6.17146V7.28516H6.22479V7.3296H6.26479V7.28516H6.31813V7.37405C6.31813 7.39182 6.31072 7.40071 6.2959 7.40071H6.10479C6.09866 7.39849 6.0931 7.39496 6.08849 7.39035C6.08388 7.38574 6.08034 7.38017 6.07812 7.37405V7.28516Z" fill="#FFFF00" stroke="black" stroke-width="0.0711113"/>
<path d="M5.95312 7.35594C5.95312 7.32927 5.99313 7.32927 5.99313 7.35594V7.42705H5.95312V7.35594Z" fill="#000001"/>
<path d="M5.71875 7.4575C5.71875 7.43083 5.75431 7.43083 5.75431 7.4575V7.51083H5.71875V7.4575Z" fill="#000001"/>
<path d="M6.1875 7.4575C6.1875 7.43083 6.22306 7.43083 6.22306 7.4575V7.51083H6.1875V7.4575Z" fill="#000001"/>
<path d="M5.78125 10.0288C5.78569 9.78434 5.95903 9.72656 5.95903 9.72656C5.96347 9.72656 6.15014 9.78878 6.15014 10.0332L5.78125 10.0288Z" fill="#FFFF00"/>
<path d="M5.63361 9.73101L5.6025 10.011H5.78917C5.78917 9.7799 5.96695 9.74434 5.96695 9.74434C5.97139 9.74434 6.14472 9.79323 6.14917 10.011H6.33584L6.30028 9.72656L5.63361 9.73101ZM5.58917 10.0155H6.34472C6.35954 10.0155 6.36843 10.0258 6.37139 10.0466C6.37139 10.0703 6.3625 10.0821 6.34472 10.0821H5.58917C5.57435 10.0821 5.56546 10.0703 5.5625 10.0466C5.5625 10.0258 5.57287 10.0155 5.59361 10.0155H5.58917Z" fill="#FFFF00" stroke="black" stroke-width="0.0711113"/>
<path d="M5.86257 10.012C5.86257 9.86535 5.96479 9.82535 5.96479 9.82535C5.96479 9.82535 6.06701 9.86979 6.06701 10.012H5.86257ZM5.60479 9.61201H6.32924C6.34405 9.61498 6.35294 9.62683 6.3559 9.64757C6.3559 9.66239 6.34702 9.67127 6.32924 9.67424H5.60479C5.58998 9.67424 5.58109 9.66387 5.57812 9.64313C5.57812 9.62831 5.58701 9.61942 5.60479 9.61646V9.61201ZM5.62257 9.67868H6.30702C6.32183 9.67868 6.33072 9.68905 6.33368 9.70979C6.33665 9.73053 6.32776 9.7409 6.30702 9.7409H5.61812C5.60035 9.7409 5.59146 9.73053 5.59146 9.70979C5.59146 9.68905 5.60035 9.67868 5.61812 9.67868H5.62257ZM5.84479 9.20757H5.89813V9.24312H5.93813V9.20757H5.9959V9.24757H6.0359V9.20312H6.08924V9.29201C6.08924 9.30979 6.08183 9.31868 6.06701 9.31868H5.87146C5.85664 9.31868 5.84776 9.31127 5.84479 9.29646V9.20757ZM6.04924 9.32757L6.06257 9.61201H5.87146L5.88479 9.32313H6.04924" fill="#FFFF00"/>
<path d="M6.04924 9.32757L6.06257 9.61201H5.87146L5.88479 9.32313H6.04924M5.86257 10.012C5.86257 9.86535 5.96479 9.82535 5.96479 9.82535C5.96479 9.82535 6.06701 9.86979 6.06701 10.012H5.86257ZM5.60479 9.61201H6.32924C6.34405 9.61498 6.35294 9.62683 6.3559 9.64757C6.3559 9.66239 6.34702 9.67127 6.32924 9.67424H5.60479C5.58998 9.67424 5.58109 9.66387 5.57812 9.64313C5.57812 9.62831 5.58701 9.61942 5.60479 9.61646V9.61201ZM5.62257 9.67868H6.30702C6.32183 9.67868 6.33072 9.68905 6.33368 9.70979C6.33664 9.73053 6.32776 9.7409 6.30702 9.7409H5.61812C5.60035 9.7409 5.59146 9.73053 5.59146 9.70979C5.59146 9.68905 5.60035 9.67868 5.61812 9.67868H5.62257ZM5.84479 9.20757H5.89813V9.24312H5.93813V9.20757H5.9959V9.24757H6.0359V9.20312H6.08924V9.29201C6.08924 9.30979 6.08183 9.31868 6.06701 9.31868H5.87146C5.85664 9.31868 5.84776 9.31127 5.84479 9.29646V9.20757Z" stroke="black" stroke-width="0.0711113"/>
<path d="M5.8184 9.46094V9.61205H5.64062V9.46094H5.8184Z" fill="#FFFF00" stroke="black" stroke-width="0.0711113"/>
<path d="M6.28715 9.46094V9.61205H6.10938V9.46094H6.28715Z" fill="#FFFF00" stroke="black" stroke-width="0.0711113"/>
<path d="M5.60938 9.34375H5.66271V9.38819H5.70271V9.34375H5.75604V9.38819H5.79604V9.34375H5.84938V9.43264C5.84938 9.45042 5.84197 9.45931 5.82715 9.45931H5.63604C5.62991 9.45709 5.62435 9.45355 5.61974 9.44894C5.61513 9.44433 5.61159 9.43877 5.60938 9.43264V9.34375Z" fill="#FFFF00" stroke="black" stroke-width="0.0711113"/>
<path d="M6.07812 9.34375H6.13146V9.38819H6.17146V9.34375H6.22479V9.38819H6.26479V9.34375H6.31813V9.43264C6.31813 9.45042 6.31072 9.45931 6.2959 9.45931H6.10479C6.09866 9.45709 6.0931 9.45355 6.08849 9.44894C6.08388 9.44433 6.08034 9.43877 6.07812 9.43264V9.34375Z" fill="#FFFF00" stroke="black" stroke-width="0.0711113"/>
<path d="M5.95312 9.41453C5.95312 9.38786 5.99313 9.38786 5.99313 9.41453V9.48564H5.95312V9.41453Z" fill="#000001"/>
<path d="M5.71875 9.51609C5.71875 9.48943 5.75431 9.48943 5.75431 9.51609V9.56943H5.71875V9.51609Z" fill="#000001"/>
<path d="M6.1875 9.51609C6.1875 9.48943 6.22306 9.48943 6.22306 9.51609V9.56943H6.1875V9.51609Z" fill="#000001"/>
<path d="M6.58945 12.1739C6.41913 11.9985 6.50027 11.8348 6.50027 11.8348C6.5034 11.8316 6.67908 11.743 6.85253 11.9153L6.58945 12.1739Z" fill="#FFFF00"/>
<path d="M6.27201 12.0699L6.44877 12.2892L6.5803 12.1568C6.41631 11.9939 6.51635 11.8427 6.51635 11.8427C6.51948 11.8396 6.67631 11.751 6.83397 11.9013L6.9655 11.7689L6.73861 11.5937L6.27201 12.0699ZM6.44253 12.3018L6.97492 11.7657C6.98536 11.7552 6.99898 11.7562 7.01578 11.7687C7.0326 11.7854 7.03475 11.8001 7.02222 11.8127L6.48983 12.3488C6.47939 12.3593 6.46472 12.3573 6.44581 12.3427C6.4311 12.3281 6.43104 12.3134 6.44566 12.2987L6.44253 12.3018Z" fill="#FFFF00" stroke="black" stroke-width="0.0711113"/>
<path d="M6.63377 12.1025C6.5297 11.9992 6.57335 11.8984 6.57335 11.8984C6.57335 11.8984 6.67691 11.8572 6.77783 11.9574L6.63377 12.1025ZM6.1683 12.0036L6.67877 11.4895C6.69131 11.4811 6.70599 11.4831 6.72279 11.4957C6.7333 11.5061 6.73335 11.5187 6.72292 11.5334L6.21245 12.0474C6.20201 12.0579 6.18839 12.0569 6.17159 12.0444C6.16107 12.034 6.16103 12.0214 6.17145 12.0067L6.1683 12.0036ZM6.22813 12.0379L6.71042 11.5523C6.72086 11.5418 6.73448 11.5428 6.75128 11.5553C6.76809 11.5678 6.76918 11.5814 6.75457 11.5961L6.26915 12.0849C6.25663 12.0975 6.243 12.0965 6.22829 12.0819C6.21357 12.0673 6.21247 12.0537 6.225 12.0411L6.22813 12.0379ZM6.05043 11.5483L6.08801 11.5104L6.11324 11.5355L6.14143 11.5071L6.1162 11.4821L6.15691 11.4411L6.18529 11.4692L6.21348 11.4409L6.18194 11.4095L6.21952 11.3717L6.2826 11.4343C6.29521 11.4469 6.2963 11.4584 6.28586 11.4689L6.14806 11.6077C6.13762 11.6182 6.1261 11.6193 6.1135 11.6109L6.05043 11.5483ZM6.27964 11.4878L6.49087 11.6787L6.3562 11.8144L6.16061 11.6013L6.27648 11.4846" fill="#FFFF00"/>
<path d="M6.27964 11.4878L6.49087 11.6787L6.3562 11.8144L6.16061 11.6013L6.27648 11.4846M6.63377 12.1025C6.5297 11.9992 6.57335 11.8984 6.57335 11.8984C6.57335 11.8984 6.67691 11.8572 6.77783 11.9574L6.63377 12.1025ZM6.1683 12.0036L6.67877 11.4895C6.69131 11.4811 6.70599 11.4831 6.72279 11.4957C6.7333 11.5061 6.73335 11.5187 6.72292 11.5334L6.21245 12.0474C6.20201 12.0579 6.18839 12.0569 6.17159 12.0444C6.16107 12.034 6.16103 12.0214 6.17145 12.0067L6.1683 12.0036ZM6.22813 12.0379L6.71042 11.5523C6.72086 11.5418 6.73448 11.5428 6.75128 11.5553C6.76809 11.5678 6.76918 11.5814 6.75457 11.5961L6.26915 12.0849C6.25663 12.0975 6.243 12.0965 6.22829 12.0819C6.21357 12.0673 6.21247 12.0537 6.225 12.0411L6.22813 12.0379ZM6.05043 11.5483L6.08801 11.5104L6.11324 11.5355L6.14143 11.5071L6.1162 11.4821L6.15691 11.4411L6.18529 11.4692L6.21348 11.4409L6.18194 11.4095L6.21952 11.3717L6.2826 11.4343C6.29521 11.4469 6.2963 11.4584 6.28586 11.4689L6.14806 11.6077C6.13762 11.6182 6.1261 11.6193 6.1135 11.6109L6.05043 11.5483Z" stroke="black" stroke-width="0.0711113"/>
<path d="M6.21121 11.7489L6.31843 11.8553L6.19316 11.9815L6.08594 11.875L6.21121 11.7489Z" fill="#FFFF00" stroke="black" stroke-width="0.0711113"/>
<path d="M6.54714 11.4129L6.65437 11.5194L6.5291 11.6455L6.42188 11.5391L6.54714 11.4129Z" fill="#FFFF00" stroke="black" stroke-width="0.0711113"/>
<path d="M5.98438 11.8125L6.02196 11.7747L6.05349 11.806L6.08168 11.7776L6.05014 11.7463L6.08772 11.7084L6.11926 11.7397L6.14744 11.7114L6.11591 11.68L6.15349 11.6422L6.21656 11.7048C6.22918 11.7174 6.23026 11.7289 6.21982 11.7394L6.08516 11.875C6.07927 11.8778 6.07284 11.8792 6.06632 11.8793C6.0598 11.8793 6.05336 11.8779 6.04745 11.8751L5.98438 11.8125Z" fill="#FFFF00" stroke="black" stroke-width="0.0711113"/>
<path d="M6.3125 11.4805L6.35008 11.4426L6.38162 11.4739L6.4098 11.4456L6.37827 11.4142L6.41585 11.3764L6.44738 11.4077L6.47557 11.3793L6.44403 11.348L6.48161 11.3102L6.54469 11.3728C6.5573 11.3853 6.55839 11.3969 6.54795 11.4074L6.41329 11.543C6.40739 11.5458 6.40096 11.5472 6.39444 11.5472C6.38793 11.5473 6.38148 11.5458 6.37557 11.5431L6.3125 11.4805Z" fill="#FFFF00" stroke="black" stroke-width="0.0711113"/>
<path d="M6.272 11.6235C6.25308 11.6047 6.28127 11.5763 6.30019 11.5951L6.35065 11.6452L6.32246 11.6736L6.272 11.6235Z" fill="#000001"/>
<path d="M6.17044 11.8617C6.15152 11.843 6.17657 11.8177 6.19549 11.8365L6.23334 11.8741L6.20829 11.8993L6.17044 11.8617Z" fill="#000001"/>
<path d="M6.50638 11.5258C6.48746 11.507 6.51251 11.4818 6.53143 11.5006L6.56928 11.5382L6.54422 11.5634L6.50638 11.5258Z" fill="#000001"/>
<path d="M7.8125 7.97019C7.81694 7.72575 7.99028 7.66797 7.99028 7.66797C7.99472 7.66797 8.18139 7.73019 8.18139 7.97464L7.8125 7.97019Z" fill="#FFFF00"/>
<path d="M7.66486 7.67241L7.63375 7.95241H7.82042C7.82042 7.7213 7.9982 7.68575 7.9982 7.68575C8.00264 7.68575 8.17597 7.73464 8.18042 7.95241H8.36709L8.33153 7.66797L7.66486 7.67241ZM7.62042 7.95686H8.37597C8.39079 7.95686 8.39968 7.96723 8.40264 7.98797C8.40264 8.01167 8.39375 8.02352 8.37597 8.02352H7.62042C7.6056 8.02352 7.59671 8.01167 7.59375 7.98797C7.59375 7.96723 7.60412 7.95686 7.62486 7.95686H7.62042Z" fill="#FFFF00" stroke="black" stroke-width="0.0711113"/>
<path d="M7.89382 7.95342C7.89382 7.80675 7.99604 7.76675 7.99604 7.76675C7.99604 7.76675 8.09826 7.8112 8.09826 7.95342H7.89382ZM7.63604 7.55342H8.36049C8.3753 7.55638 8.38419 7.56824 8.38715 7.58898C8.38715 7.60379 8.37827 7.61268 8.36049 7.61564H7.63604C7.62123 7.61564 7.61234 7.60527 7.60938 7.58453C7.60938 7.56972 7.61826 7.56083 7.63604 7.55787V7.55342ZM7.65382 7.62009H8.33827C8.35308 7.62009 8.36197 7.63046 8.36493 7.6512C8.3679 7.67194 8.35901 7.68231 8.33827 7.68231H7.64937C7.6316 7.68231 7.62271 7.67194 7.62271 7.6512C7.62271 7.63046 7.6316 7.62009 7.64937 7.62009H7.65382ZM7.87604 7.14898H7.92938V7.18453H7.96938V7.14898H8.02715V7.18898H8.06715V7.14453H8.12049V7.23342C8.12049 7.2512 8.11308 7.26009 8.09826 7.26009H7.90271C7.88789 7.26009 7.87901 7.25268 7.87604 7.23786V7.14898ZM8.08049 7.26898L8.09382 7.55342H7.90271L7.91604 7.26453H8.08049" fill="#FFFF00"/>
<path d="M8.08049 7.26898L8.09382 7.55342H7.90271L7.91604 7.26453H8.08049M7.89382 7.95342C7.89382 7.80675 7.99604 7.76675 7.99604 7.76675C7.99604 7.76675 8.09826 7.8112 8.09826 7.95342H7.89382ZM7.63604 7.55342H8.36049C8.3753 7.55638 8.38419 7.56824 8.38715 7.58898C8.38715 7.60379 8.37827 7.61268 8.36049 7.61564H7.63604C7.62123 7.61564 7.61234 7.60527 7.60938 7.58453C7.60938 7.56972 7.61826 7.56083 7.63604 7.55787V7.55342ZM7.65382 7.62009H8.33827C8.35308 7.62009 8.36197 7.63046 8.36493 7.6512C8.36789 7.67194 8.35901 7.68231 8.33827 7.68231H7.64937C7.6316 7.68231 7.62271 7.67194 7.62271 7.6512C7.62271 7.63046 7.6316 7.62009 7.64937 7.62009H7.65382ZM7.87604 7.14898H7.92938V7.18453H7.96938V7.14898H8.02715V7.18898H8.06715V7.14453H8.12049V7.23342C8.12049 7.2512 8.11308 7.26009 8.09826 7.26009H7.90271C7.88789 7.26009 7.87901 7.25268 7.87604 7.23786V7.14898Z" stroke="black" stroke-width="0.0711113"/>
<path d="M7.84965 7.40234V7.55345H7.67188V7.40234H7.84965Z" fill="#FFFF00" stroke="black" stroke-width="0.0711113"/>
<path d="M8.3184 7.40234V7.55345H8.14062V7.40234H8.3184Z" fill="#FFFF00" stroke="black" stroke-width="0.0711113"/>
<path d="M7.64062 7.28516H7.69396V7.3296H7.73396V7.28516H7.78729V7.3296H7.82729V7.28516H7.88063V7.37405C7.88063 7.39182 7.87322 7.40071 7.8584 7.40071H7.66729C7.66116 7.39849 7.6556 7.39496 7.65099 7.39035C7.64638 7.38574 7.64284 7.38017 7.64062 7.37405V7.28516Z" fill="#FFFF00" stroke="black" stroke-width="0.0711113"/>
<path d="M8.10938 7.28516H8.16271V7.3296H8.20271V7.28516H8.25604V7.3296H8.29604V7.28516H8.34938V7.37405C8.34938 7.39182 8.34197 7.40071 8.32715 7.40071H8.13604C8.12991 7.39849 8.12435 7.39496 8.11974 7.39035C8.11513 7.38574 8.11159 7.38017 8.10938 7.37405V7.28516Z" fill="#FFFF00" stroke="black" stroke-width="0.0711113"/>
<path d="M7.98438 7.35594C7.98438 7.32927 8.02438 7.32927 8.02438 7.35594V7.42705H7.98438V7.35594Z" fill="#000001"/>
<path d="M7.75 7.4575C7.75 7.43083 7.78556 7.43083 7.78556 7.4575V7.51083H7.75V7.4575Z" fill="#000001"/>
<path d="M8.21875 7.4575C8.21875 7.43083 8.25431 7.43083 8.25431 7.4575V7.51083H8.21875V7.4575Z" fill="#000001"/>
<path d="M10.2031 7.97019C10.1987 7.72575 10.0253 7.66797 10.0253 7.66797C10.0209 7.66797 9.83424 7.73019 9.83424 7.97464L10.2031 7.97019Z" fill="#FFFF00"/>
<path d="M10.3508 7.67241L10.3819 7.95241H10.1952C10.1952 7.7213 10.0174 7.68575 10.0174 7.68575C10.013 7.68575 9.83965 7.73464 9.83521 7.95241H9.64854L9.6841 7.66797L10.3508 7.67241ZM10.3952 7.95686H9.63965C9.62484 7.95686 9.61595 7.96723 9.61298 7.98797C9.61298 8.01167 9.62187 8.02352 9.63965 8.02352H10.3952C10.41 8.02352 10.4189 8.01167 10.4219 7.98797C10.4219 7.96723 10.4115 7.95686 10.3908 7.95686H10.3952Z" fill="#FFFF00" stroke="black" stroke-width="0.0711113"/>
<path d="M10.1218 7.95342C10.1218 7.80675 10.0196 7.76675 10.0196 7.76675C10.0196 7.76675 9.91736 7.8112 9.91736 7.95342H10.1218ZM10.3796 7.55342H9.65514C9.64032 7.55638 9.63143 7.56824 9.62847 7.58898C9.62847 7.60379 9.63736 7.61268 9.65514 7.61564H10.3796C10.3944 7.61564 10.4033 7.60527 10.4062 7.58453C10.4062 7.56972 10.3974 7.56083 10.3796 7.55787V7.55342ZM10.3618 7.62009H9.67736C9.66255 7.62009 9.65366 7.63046 9.65069 7.6512C9.64773 7.67194 9.65662 7.68231 9.67736 7.68231H10.3663C10.384 7.68231 10.3929 7.67194 10.3929 7.6512C10.3929 7.63046 10.384 7.62009 10.3663 7.62009H10.3618ZM10.1396 7.14898H10.0862V7.18453H10.0462V7.14898H9.98847V7.18898H9.94847V7.14453H9.89514V7.23342C9.89514 7.2512 9.90255 7.26009 9.91736 7.26009H10.1129C10.1277 7.26009 10.1366 7.25268 10.1396 7.23786V7.14898ZM9.93514 7.26898L9.9218 7.55342H10.1129L10.0996 7.26453H9.93514" fill="#FFFF00"/>
<path d="M9.93514 7.26898L9.9218 7.55342H10.1129L10.0996 7.26453H9.93514M10.1218 7.95342C10.1218 7.80675 10.0196 7.76675 10.0196 7.76675C10.0196 7.76675 9.91736 7.8112 9.91736 7.95342H10.1218ZM10.3796 7.55342H9.65514C9.64032 7.55638 9.63143 7.56824 9.62847 7.58898C9.62847 7.60379 9.63736 7.61268 9.65514 7.61564H10.3796C10.3944 7.61564 10.4033 7.60527 10.4062 7.58453C10.4062 7.56972 10.3974 7.56083 10.3796 7.55787V7.55342ZM10.3618 7.62009H9.67736C9.66255 7.62009 9.65366 7.63046 9.65069 7.6512C9.64773 7.67194 9.65662 7.68231 9.67736 7.68231H10.3663C10.384 7.68231 10.3929 7.67194 10.3929 7.6512C10.3929 7.63046 10.384 7.62009 10.3663 7.62009H10.3618ZM10.1396 7.14898H10.0862V7.18453H10.0462V7.14898H9.98847V7.18898H9.94847V7.14453H9.89514V7.23342C9.89514 7.2512 9.90255 7.26009 9.91736 7.26009H10.1129C10.1277 7.26009 10.1366 7.25268 10.1396 7.23786V7.14898Z" stroke="black" stroke-width="0.0711113"/>
<path d="M10.166 7.40234V7.55345H10.3438V7.40234H10.166Z" fill="#FFFF00" stroke="black" stroke-width="0.0711113"/>
<path d="M9.69722 7.40234V7.55345H9.875V7.40234H9.69722Z" fill="#FFFF00" stroke="black" stroke-width="0.0711113"/>
<path d="M10.375 7.28516H10.3217V7.3296H10.2817V7.28516H10.2283V7.3296H10.1883V7.28516H10.135V7.37405C10.135 7.39182 10.1424 7.40071 10.1572 7.40071H10.3483C10.3545 7.39849 10.36 7.39496 10.3646 7.39035C10.3692 7.38574 10.3728 7.38017 10.375 7.37405V7.28516Z" fill="#FFFF00" stroke="black" stroke-width="0.0711113"/>
<path d="M9.90625 7.28516H9.85292V7.3296H9.81292V7.28516H9.75958V7.3296H9.71958V7.28516H9.66625V7.37405C9.66625 7.39182 9.67366 7.40071 9.68847 7.40071H9.87958C9.88571 7.39849 9.89128 7.39496 9.89589 7.39035C9.90049 7.38574 9.90403 7.38017 9.90625 7.37405V7.28516Z" fill="#FFFF00" stroke="black" stroke-width="0.0711113"/>
<path d="M10.0312 7.35594C10.0312 7.32927 9.99125 7.32927 9.99125 7.35594V7.42705H10.0312V7.35594Z" fill="#000001"/>
<path d="M10.2656 7.4575C10.2656 7.43083 10.2301 7.43083 10.2301 7.4575V7.51083H10.2656V7.4575Z" fill="#000001"/>
<path d="M9.79688 7.4575C9.79688 7.43083 9.76132 7.43083 9.76132 7.4575V7.51083H9.79688V7.4575Z" fill="#000001"/>
<path d="M10.2031 10.0288C10.1987 9.78434 10.0253 9.72656 10.0253 9.72656C10.0209 9.72656 9.83424 9.78878 9.83424 10.0332L10.2031 10.0288Z" fill="#FFFF00"/>
<path d="M10.3508 9.73101L10.3819 10.011H10.1952C10.1952 9.7799 10.0174 9.74434 10.0174 9.74434C10.013 9.74434 9.83965 9.79323 9.83521 10.011H9.64854L9.6841 9.72656L10.3508 9.73101ZM10.3952 10.0155H9.63965C9.62484 10.0155 9.61595 10.0258 9.61298 10.0466C9.61298 10.0703 9.62187 10.0821 9.63965 10.0821H10.3952C10.41 10.0821 10.4189 10.0703 10.4219 10.0466C10.4219 10.0258 10.4115 10.0155 10.3908 10.0155H10.3952Z" fill="#FFFF00" stroke="black" stroke-width="0.0711113"/>
<path d="M10.1218 10.012C10.1218 9.86535 10.0196 9.82535 10.0196 9.82535C10.0196 9.82535 9.91736 9.86979 9.91736 10.012H10.1218ZM10.3796 9.61201H9.65514C9.64032 9.61498 9.63143 9.62683 9.62847 9.64757C9.62847 9.66239 9.63736 9.67127 9.65514 9.67424H10.3796C10.3944 9.67424 10.4033 9.66387 10.4062 9.64313C10.4062 9.62831 10.3974 9.61942 10.3796 9.61646V9.61201ZM10.3618 9.67868H9.67736C9.66255 9.67868 9.65366 9.68905 9.65069 9.70979C9.64773 9.73053 9.65662 9.7409 9.67736 9.7409H10.3663C10.384 9.7409 10.3929 9.73053 10.3929 9.70979C10.3929 9.68905 10.384 9.67868 10.3663 9.67868H10.3618ZM10.1396 9.20757H10.0862V9.24312H10.0462V9.20757H9.98847V9.24757H9.94847V9.20312H9.89514V9.29201C9.89514 9.30979 9.90255 9.31868 9.91736 9.31868H10.1129C10.1277 9.31868 10.1366 9.31127 10.1396 9.29646V9.20757ZM9.93514 9.32757L9.9218 9.61201H10.1129L10.0996 9.32313H9.93514" fill="#FFFF00"/>
<path d="M9.93514 9.32757L9.9218 9.61201H10.1129L10.0996 9.32313H9.93514M10.1218 10.012C10.1218 9.86535 10.0196 9.82535 10.0196 9.82535C10.0196 9.82535 9.91736 9.86979 9.91736 10.012H10.1218ZM10.3796 9.61201H9.65514C9.64032 9.61498 9.63143 9.62683 9.62847 9.64757C9.62847 9.66239 9.63736 9.67127 9.65514 9.67424H10.3796C10.3944 9.67424 10.4033 9.66387 10.4062 9.64313C10.4062 9.62831 10.3974 9.61942 10.3796 9.61646V9.61201ZM10.3618 9.67868H9.67736C9.66255 9.67868 9.65366 9.68905 9.65069 9.70979C9.64773 9.73053 9.65662 9.7409 9.67736 9.7409H10.3663C10.384 9.7409 10.3929 9.73053 10.3929 9.70979C10.3929 9.68905 10.384 9.67868 10.3663 9.67868H10.3618ZM10.1396 9.20757H10.0862V9.24312H10.0462V9.20757H9.98847V9.24757H9.94847V9.20312H9.89514V9.29201C9.89514 9.30979 9.90255 9.31868 9.91736 9.31868H10.1129C10.1277 9.31868 10.1366 9.31127 10.1396 9.29646V9.20757Z" stroke="black" stroke-width="0.0711113"/>
<path d="M10.166 9.46094V9.61205H10.3438V9.46094H10.166Z" fill="#FFFF00" stroke="black" stroke-width="0.0711113"/>
<path d="M9.69722 9.46094V9.61205H9.875V9.46094H9.69722Z" fill="#FFFF00" stroke="black" stroke-width="0.0711113"/>
<path d="M10.375 9.34375H10.3217V9.38819H10.2817V9.34375H10.2283V9.38819H10.1883V9.34375H10.135V9.43264C10.135 9.45042 10.1424 9.45931 10.1572 9.45931H10.3483C10.3545 9.45709 10.36 9.45355 10.3646 9.44894C10.3692 9.44433 10.3728 9.43877 10.375 9.43264V9.34375Z" fill="#FFFF00" stroke="black" stroke-width="0.0711113"/>
<path d="M9.90625 9.34375H9.85292V9.38819H9.81292V9.34375H9.75958V9.38819H9.71958V9.34375H9.66625V9.43264C9.66625 9.45042 9.67366 9.45931 9.68847 9.45931H9.87958C9.88571 9.45709 9.89128 9.45355 9.89589 9.44894C9.90049 9.44433 9.90403 9.43877 9.90625 9.43264V9.34375Z" fill="#FFFF00" stroke="black" stroke-width="0.0711113"/>
<path d="M10.0312 9.41453C10.0312 9.38786 9.99125 9.38786 9.99125 9.41453V9.48564H10.0312V9.41453Z" fill="#000001"/>
<path d="M10.2656 9.51609C10.2656 9.48943 10.2301 9.48943 10.2301 9.51609V9.56943H10.2656V9.51609Z" fill="#000001"/>
<path d="M9.79688 9.51609C9.79688 9.48943 9.76132 9.48943 9.76132 9.51609V9.56943H9.79688V9.51609Z" fill="#000001"/>
<path d="M9.39493 12.1739C9.56525 11.9985 9.48411 11.8348 9.48411 11.8348C9.48097 11.8316 9.30529 11.743 9.13184 11.9153L9.39493 12.1739Z" fill="#FFFF00"/>
<path d="M9.71236 12.0699L9.53561 12.2892L9.40407 12.1568C9.56806 11.9939 9.46802 11.8427 9.46802 11.8427C9.46489 11.8396 9.30807 11.751 9.15041 11.9013L9.01887 11.7689L9.24576 11.5937L9.71236 12.0699ZM9.54185 12.3018L9.00946 11.7657C8.99902 11.7552 8.9854 11.7562 8.96859 11.7687C8.95177 11.7854 8.94962 11.8001 8.96215 11.8127L9.49454 12.3488C9.50498 12.3593 9.51965 12.3573 9.53856 12.3427C9.55328 12.3281 9.55333 12.3134 9.53872 12.2987L9.54185 12.3018Z" fill="#FFFF00" stroke="black" stroke-width="0.0711113"/>
<path d="M9.35061 12.1025C9.45468 11.9992 9.41103 11.8984 9.41103 11.8984C9.41103 11.8984 9.30746 11.8572 9.20655 11.9574L9.35061 12.1025ZM9.81607 12.0036L9.3056 11.4895C9.29306 11.4811 9.27839 11.4831 9.26158 11.4957C9.25107 11.5061 9.25103 11.5187 9.26145 11.5334L9.77192 12.0474C9.78236 12.0579 9.79598 12.0569 9.81279 12.0444C9.8233 12.034 9.82334 12.0214 9.81292 12.0067L9.81607 12.0036ZM9.75624 12.0379L9.27396 11.5523C9.26352 11.5418 9.2499 11.5428 9.23309 11.5553C9.21629 11.5678 9.21519 11.5814 9.22981 11.5961L9.71522 12.0849C9.72775 12.0975 9.74137 12.0965 9.75609 12.0819C9.77081 12.0673 9.7719 12.0537 9.75937 12.0411L9.75624 12.0379ZM9.93394 11.5483L9.89636 11.5104L9.87113 11.5355L9.84295 11.5071L9.86818 11.4821L9.82747 11.4411L9.79908 11.4692L9.7709 11.4409L9.80243 11.4095L9.76485 11.3717L9.70178 11.4343C9.68917 11.4469 9.68808 11.4584 9.69852 11.4689L9.83631 11.6077C9.84675 11.6182 9.85827 11.6193 9.87087 11.6109L9.93394 11.5483ZM9.70474 11.4878L9.49351 11.6787L9.62817 11.8144L9.82376 11.6013L9.70789 11.4846" fill="#FFFF00"/>
<path d="M9.70474 11.4878L9.49351 11.6787L9.62817 11.8144L9.82376 11.6013L9.70789 11.4846M9.35061 12.1025C9.45468 11.9992 9.41103 11.8984 9.41103 11.8984C9.41103 11.8984 9.30746 11.8572 9.20655 11.9574L9.35061 12.1025ZM9.81607 12.0036L9.3056 11.4895C9.29306 11.4811 9.27839 11.4831 9.26158 11.4957C9.25107 11.5061 9.25103 11.5187 9.26145 11.5334L9.77192 12.0474C9.78236 12.0579 9.79598 12.0569 9.81279 12.0444C9.8233 12.034 9.82334 12.0214 9.81292 12.0067L9.81607 12.0036ZM9.75624 12.0379L9.27396 11.5523C9.26352 11.5418 9.2499 11.5428 9.23309 11.5553C9.21629 11.5678 9.21519 11.5814 9.22981 11.5961L9.71522 12.0849C9.72775 12.0975 9.74137 12.0965 9.75609 12.0819C9.77081 12.0673 9.7719 12.0537 9.75937 12.0411L9.75624 12.0379ZM9.93394 11.5483L9.89636 11.5104L9.87113 11.5355L9.84295 11.5071L9.86818 11.4821L9.82747 11.4411L9.79908 11.4692L9.7709 11.4409L9.80243 11.4095L9.76485 11.3717L9.70178 11.4343C9.68917 11.4469 9.68808 11.4584 9.69852 11.4689L9.83631 11.6077C9.84675 11.6182 9.85827 11.6193 9.87087 11.6109L9.93394 11.5483Z" stroke="black" stroke-width="0.0711113"/>
<path d="M9.77317 11.7489L9.66594 11.8553L9.79121 11.9815L9.89844 11.875L9.77317 11.7489Z" fill="#FFFF00" stroke="black" stroke-width="0.0711113"/>
<path d="M9.43723 11.4129L9.33001 11.5194L9.45528 11.6455L9.5625 11.5391L9.43723 11.4129Z" fill="#FFFF00" stroke="black" stroke-width="0.0711113"/>
<path d="M10 11.8125L9.96242 11.7747L9.93088 11.806L9.9027 11.7776L9.93423 11.7463L9.89665 11.7084L9.86512 11.7397L9.83693 11.7114L9.86847 11.68L9.83089 11.6422L9.76781 11.7048C9.7552 11.7174 9.75411 11.7289 9.76455 11.7394L9.89921 11.875C9.90511 11.8778 9.91154 11.8792 9.91806 11.8793C9.92457 11.8793 9.93102 11.8779 9.93693 11.8751L10 11.8125Z" fill="#FFFF00" stroke="black" stroke-width="0.0711113"/>
<path d="M9.67188 11.4805L9.63429 11.4426L9.60276 11.4739L9.57457 11.4456L9.60611 11.4142L9.56853 11.3764L9.53699 11.4077L9.50881 11.3793L9.54034 11.348L9.50276 11.3102L9.43969 11.3728C9.42707 11.3853 9.42599 11.3969 9.43643 11.4074L9.57109 11.543C9.57698 11.5458 9.58341 11.5472 9.58993 11.5472C9.59645 11.5473 9.60289 11.5458 9.6088 11.5431L9.67188 11.4805Z" fill="#FFFF00" stroke="black" stroke-width="0.0711113"/>
<path d="M9.71237 11.6235C9.73129 11.6047 9.70311 11.5763 9.68419 11.5951L9.63373 11.6452L9.66191 11.6736L9.71237 11.6235Z" fill="#000001"/>
<path d="M9.81393 11.8617C9.83286 11.843 9.8078 11.8177 9.78888 11.8365L9.75104 11.8741L9.77609 11.8993L9.81393 11.8617Z" fill="#000001"/>
<path d="M9.478 11.5258C9.49692 11.507 9.47186 11.4818 9.45294 11.5006L9.4151 11.5382L9.44015 11.5634L9.478 11.5258Z" fill="#000001"/>
<path d="M7.67197 10.105C7.66977 10.1991 7.70493 10.2902 7.76975 10.3583C7.79907 10.392 7.83528 10.4189 7.87592 10.4373C7.91656 10.4557 7.96069 10.4652 8.00531 10.465C8.10012 10.4591 8.17864 10.4235 8.24086 10.3583C8.30569 10.2902 8.34085 10.1991 8.33864 10.105V9.625H7.67197V10.105Z" fill="#003399"/>
<path d="M7.83229 9.87552C7.86911 9.87552 7.89896 9.84567 7.89896 9.80885C7.89896 9.77204 7.86911 9.74219 7.83229 9.74219C7.79547 9.74219 7.76562 9.77204 7.76562 9.80885C7.76562 9.84567 7.79547 9.87552 7.83229 9.87552Z" fill="white"/>
<path d="M8.19167 9.87552C8.22849 9.87552 8.25833 9.84567 8.25833 9.80885C8.25833 9.77204 8.22849 9.74219 8.19167 9.74219C8.15485 9.74219 8.125 9.77204 8.125 9.80885C8.125 9.84567 8.15485 9.87552 8.19167 9.87552Z" fill="white"/>
<path d="M8.00417 10.0513C8.04099 10.0513 8.07083 10.0215 8.07083 9.98464C8.07083 9.94782 8.04099 9.91797 8.00417 9.91797C7.96735 9.91797 7.9375 9.94782 7.9375 9.98464C7.9375 10.0215 7.96735 10.0513 8.00417 10.0513Z" fill="white"/>
<path d="M7.83229 10.2388C7.86911 10.2388 7.89896 10.209 7.89896 10.1721C7.89896 10.1353 7.86911 10.1055 7.83229 10.1055C7.79547 10.1055 7.76562 10.1353 7.76562 10.1721C7.76562 10.209 7.79547 10.2388 7.83229 10.2388Z" fill="white"/>
<path d="M8.19167 10.2388C8.22849 10.2388 8.25833 10.209 8.25833 10.1721C8.25833 10.1353 8.22849 10.1055 8.19167 10.1055C8.15485 10.1055 8.125 10.1353 8.125 10.1721C8.125 10.209 8.15485 10.2388 8.19167 10.2388Z" fill="white"/>
<path d="M7.67197 8.94875C7.66977 9.04281 7.70493 9.1339 7.76975 9.20208C7.79907 9.23571 7.83528 9.26265 7.87592 9.28105C7.91656 9.29945 7.96069 9.3089 8.00531 9.30875C8.10012 9.30283 8.17864 9.26727 8.24086 9.20208C8.30569 9.1339 8.34085 9.04281 8.33864 8.94875V8.46875H7.67197V8.94875Z" fill="#003399"/>
<path d="M7.83229 8.71927C7.86911 8.71927 7.89896 8.68942 7.89896 8.6526C7.89896 8.61579 7.86911 8.58594 7.83229 8.58594C7.79547 8.58594 7.76562 8.61579 7.76562 8.6526C7.76562 8.68942 7.79547 8.71927 7.83229 8.71927Z" fill="white"/>
<path d="M8.19167 8.71927C8.22849 8.71927 8.25833 8.68942 8.25833 8.6526C8.25833 8.61579 8.22849 8.58594 8.19167 8.58594C8.15485 8.58594 8.125 8.61579 8.125 8.6526C8.125 8.68942 8.15485 8.71927 8.19167 8.71927Z" fill="white"/>
<path d="M8.00417 8.89505C8.04099 8.89505 8.07083 8.8652 8.07083 8.82839C8.07083 8.79157 8.04099 8.76172 8.00417 8.76172C7.96735 8.76172 7.9375 8.79157 7.9375 8.82839C7.9375 8.8652 7.96735 8.89505 8.00417 8.89505Z" fill="white"/>
<path d="M7.83229 9.08255C7.86911 9.08255 7.89896 9.0527 7.89896 9.01589C7.89896 8.97907 7.86911 8.94922 7.83229 8.94922C7.79547 8.94922 7.76562 8.97907 7.76562 9.01589C7.76562 9.0527 7.79547 9.08255 7.83229 9.08255Z" fill="white"/>
<path d="M8.19167 9.08255C8.22849 9.08255 8.25833 9.0527 8.25833 9.01589C8.25833 8.97907 8.22849 8.94922 8.19167 8.94922C8.15485 8.94922 8.125 8.97907 8.125 9.01589C8.125 9.0527 8.15485 9.08255 8.19167 9.08255Z" fill="white"/>
<path d="M6.7501 10.105C6.74789 10.1991 6.78305 10.2902 6.84788 10.3583C6.87719 10.392 6.9134 10.4189 6.95405 10.4373C6.99469 10.4557 7.03882 10.4652 7.08343 10.465C7.17825 10.4591 7.25677 10.4235 7.31899 10.3583C7.38381 10.2902 7.41897 10.1991 7.41677 10.105V9.625H6.7501V10.105Z" fill="#003399"/>
<path d="M6.91042 9.87552C6.94724 9.87552 6.97708 9.84567 6.97708 9.80885C6.97708 9.77204 6.94724 9.74219 6.91042 9.74219C6.8736 9.74219 6.84375 9.77204 6.84375 9.80885C6.84375 9.84567 6.8736 9.87552 6.91042 9.87552Z" fill="white"/>
<path d="M7.26979 9.87552C7.30661 9.87552 7.33646 9.84567 7.33646 9.80885C7.33646 9.77204 7.30661 9.74219 7.26979 9.74219C7.23297 9.74219 7.20312 9.77204 7.20312 9.80885C7.20312 9.84567 7.23297 9.87552 7.26979 9.87552Z" fill="white"/>
<path d="M7.08229 10.0513C7.11911 10.0513 7.14896 10.0215 7.14896 9.98464C7.14896 9.94782 7.11911 9.91797 7.08229 9.91797C7.04547 9.91797 7.01562 9.94782 7.01562 9.98464C7.01562 10.0215 7.04547 10.0513 7.08229 10.0513Z" fill="white"/>
<path d="M6.91042 10.2388C6.94724 10.2388 6.97708 10.209 6.97708 10.1721C6.97708 10.1353 6.94724 10.1055 6.91042 10.1055C6.8736 10.1055 6.84375 10.1353 6.84375 10.1721C6.84375 10.209 6.8736 10.2388 6.91042 10.2388Z" fill="white"/>
<path d="M7.26979 10.2388C7.30661 10.2388 7.33646 10.209 7.33646 10.1721C7.33646 10.1353 7.30661 10.1055 7.26979 10.1055C7.23297 10.1055 7.20312 10.1353 7.20312 10.1721C7.20312 10.209 7.23297 10.2388 7.26979 10.2388Z" fill="white"/>
<path d="M8.59385 10.105C8.59164 10.1991 8.6268 10.2902 8.69163 10.3583C8.72094 10.392 8.75715 10.4189 8.7978 10.4373C8.83844 10.4557 8.88257 10.4652 8.92718 10.465C9.022 10.4591 9.10052 10.4235 9.16274 10.3583C9.22756 10.2902 9.26272 10.1991 9.26052 10.105V9.625H8.59385V10.105Z" fill="#003399"/>
<path d="M8.75417 9.87552C8.79099 9.87552 8.82083 9.84567 8.82083 9.80885C8.82083 9.77204 8.79099 9.74219 8.75417 9.74219C8.71735 9.74219 8.6875 9.77204 8.6875 9.80885C8.6875 9.84567 8.71735 9.87552 8.75417 9.87552Z" fill="white"/>
<path d="M9.11354 9.87552C9.15036 9.87552 9.18021 9.84567 9.18021 9.80885C9.18021 9.77204 9.15036 9.74219 9.11354 9.74219C9.07672 9.74219 9.04688 9.77204 9.04688 9.80885C9.04688 9.84567 9.07672 9.87552 9.11354 9.87552Z" fill="white"/>
<path d="M8.92604 10.0513C8.96286 10.0513 8.99271 10.0215 8.99271 9.98464C8.99271 9.94782 8.96286 9.91797 8.92604 9.91797C8.88922 9.91797 8.85938 9.94782 8.85938 9.98464C8.85938 10.0215 8.88922 10.0513 8.92604 10.0513Z" fill="white"/>
<path d="M8.75417 10.2388C8.79099 10.2388 8.82083 10.209 8.82083 10.1721C8.82083 10.1353 8.79099 10.1055 8.75417 10.1055C8.71735 10.1055 8.6875 10.1353 8.6875 10.1721C8.6875 10.209 8.71735 10.2388 8.75417 10.2388Z" fill="white"/>
<path d="M9.11354 10.2388C9.15036 10.2388 9.18021 10.209 9.18021 10.1721C9.18021 10.1353 9.15036 10.1055 9.11354 10.1055C9.07672 10.1055 9.04688 10.1353 9.04688 10.1721C9.04688 10.209 9.07672 10.2388 9.11354 10.2388Z" fill="white"/>
<path d="M7.67197 11.2495C7.66977 11.3436 7.70493 11.4347 7.76975 11.5029C7.79907 11.5365 7.83528 11.5634 7.87592 11.5818C7.91656 11.6002 7.96069 11.6097 8.00531 11.6095C8.10012 11.6036 8.17864 11.5681 8.24086 11.5029C8.30569 11.4347 8.34085 11.3436 8.33864 11.2495V10.7695H7.67197V11.2495Z" fill="#003399"/>
<path d="M7.83229 11.0201C7.86911 11.0201 7.89896 10.9902 7.89896 10.9534C7.89896 10.9166 7.86911 10.8867 7.83229 10.8867C7.79547 10.8867 7.76562 10.9166 7.76562 10.9534C7.76562 10.9902 7.79547 11.0201 7.83229 11.0201Z" fill="white"/>
<path d="M8.19167 11.0201C8.22849 11.0201 8.25833 10.9902 8.25833 10.9534C8.25833 10.9166 8.22849 10.8867 8.19167 10.8867C8.15485 10.8867 8.125 10.9166 8.125 10.9534C8.125 10.9902 8.15485 11.0201 8.19167 11.0201Z" fill="white"/>
<path d="M8.00417 11.1958C8.04099 11.1958 8.07083 11.166 8.07083 11.1292C8.07083 11.0923 8.04099 11.0625 8.00417 11.0625C7.96735 11.0625 7.9375 11.0923 7.9375 11.1292C7.9375 11.166 7.96735 11.1958 8.00417 11.1958Z" fill="white"/>
<path d="M7.83229 11.3833C7.86911 11.3833 7.89896 11.3535 7.89896 11.3167C7.89896 11.2798 7.86911 11.25 7.83229 11.25C7.79547 11.25 7.76562 11.2798 7.76562 11.3167C7.76562 11.3535 7.79547 11.3833 7.83229 11.3833Z" fill="white"/>
<path d="M8.19167 11.3833C8.22849 11.3833 8.25833 11.3535 8.25833 11.3167C8.25833 11.2798 8.22849 11.25 8.19167 11.25C8.15485 11.25 8.125 11.2798 8.125 11.3167C8.125 11.3535 8.15485 11.3833 8.19167 11.3833Z" fill="white"/>
</g>
<defs>
<clipPath id="clip0_8970_5340">
<rect width="20" height="20" rx="10" fill="white"/>
</clipPath>
</defs>
</svg>
