<svg width="38" height="38" viewBox="0 0 38 38" fill="none" xmlns="http://www.w3.org/2000/svg">
<path d="M9.69444 8.85778C9.00023 9.59282 8.91856 10.4912 8.79606 16.0448C8.63272 23.4769 8.91856 24.5386 11.1237 25.1919C12.0629 25.4778 16.3914 25.5595 23.0476 25.4778C32.6848 25.3553 33.624 25.2736 34.3999 24.5794C35.2166 23.8444 35.2574 23.3952 35.2574 16.5757C35.2574 10.0828 35.1757 9.26613 34.5224 8.69444C33.869 8.08191 32.3989 8.00023 22.1084 8.00023C10.797 8.00023 10.4703 8.04107 9.69444 8.85778ZM29.8671 11.8796C30.153 12.4513 30.8064 13.1047 31.378 13.3905C32.3173 13.7989 32.3989 14.0439 32.3989 16.5348C32.3989 19.1075 32.3581 19.2708 31.133 19.965C30.4388 20.3325 29.7855 21.0267 29.663 21.4759C29.4588 22.2518 29.0913 22.2926 22.1901 22.2926H14.9622L14.513 21.2717C14.2272 20.7001 13.5738 20.0467 13.0021 19.7608C12.0629 19.3525 11.9812 19.1075 11.9812 16.5757C11.9812 14.0439 12.0629 13.7989 13.0021 13.3905C13.5738 13.1047 14.2272 12.4513 14.513 11.8796L14.9622 10.8587H22.1901H29.4179L29.8671 11.8796Z" fill="#0084D0"/>
<path d="M19.8635 12.9034C18.2709 13.8426 17.6992 14.8635 17.6992 16.7419C17.6992 20.0087 21.6603 22.0913 24.5187 20.2946C27.3772 18.4978 27.0914 13.9651 24.0695 12.6992C22.1503 11.8825 21.4152 11.9233 19.8635 12.9034Z" fill="#0084D0"/>
<path d="M3 20.8235V29.6031L4.06172 30.4198C5.12344 31.2365 5.61347 31.2773 17.9458 31.2773H30.7681L31.0131 30.2973C31.1356 29.7256 31.1356 29.0722 30.9723 28.8681C30.8089 28.5822 26.8479 28.4189 19.2117 28.4189C12.8822 28.4189 7.28772 28.2964 6.79769 28.1739C5.85848 27.9288 5.85848 27.8472 5.85848 20.0068V12.0847H4.42924H3V20.8235Z" fill="#0084D0"/>
</svg>
