<svg width="21" height="20" viewBox="0 0 21 20" fill="none" xmlns="http://www.w3.org/2000/svg">
<path d="M7.60017 1.35055C7.4483 1.54039 7.48627 1.95804 7.60017 2.29975C7.79001 2.75536 8.35953 2.90723 9.99214 2.90723C14.1306 2.90723 17.244 6.05854 17.244 10.2729C17.244 15.7403 11.4729 19.2713 6.57505 16.7654C4.18309 15.5125 2.0569 11.6777 2.58845 9.51359C2.77829 8.86814 2.62642 8.60237 2.01893 8.41253C0.917873 8.07082 0.803971 8.29863 0.841938 10.6906C0.879906 15.9681 6.23334 20.3344 11.4729 19.3852C14.5103 18.8157 17.4338 16.5376 18.5349 13.8419C19.4461 11.7157 19.2942 8.41253 18.2311 6.13448C17.168 3.85642 16.1049 2.83129 13.8269 1.80617C12.0424 1.00885 7.97985 0.705105 7.60017 1.35055Z" fill="#111111" fill-opacity="0.4"/>
<path d="M0.00615665 2.10753C-0.107746 2.29737 1.37299 3.85404 3.27137 5.56258C5.88498 8.02751 5.69514 7.45948 7.59352 9.92738C8.35288 11.1438 10.6371 13.7227 11.928 13.7227C11.928 12.0156 11.928 13.232 11.928 11.1438C11.928 9.62512 11.928 8.59851 11.928 8.02751C11.4344 7.3441 1.14519 1.76582 0.423801 1.76582C0.309898 1.76582 0.12006 1.91769 0.00615665 2.10753Z" fill="#111111" fill-opacity="0.4"/>
</svg>
