<svg width="38" height="38" viewBox="0 0 38 38" fill="none" xmlns="http://www.w3.org/2000/svg">
<path d="M15.217 4.98609L12.2305 8.01861L15.4468 10.9133L18.6631 13.8539L18.8009 11.6025L18.9388 9.39703L20.4091 9.67272C26.0147 10.7295 29.4607 16.7486 27.5769 22.2163C27.0715 23.5948 27.1174 23.7786 28.1283 24.5597C29.6445 25.7543 29.8743 25.6624 30.7013 23.6867C32.3554 19.7811 31.3446 13.8999 28.358 10.4079C26.8877 8.66187 22.0632 6.13477 20.1794 6.13477C18.9388 6.13477 18.8928 6.04288 18.8928 4.06714C18.8928 2.91846 18.709 1.99951 18.5253 1.99951C18.3415 1.99951 16.8252 3.33198 15.217 4.98609Z" fill="#0084D0"/>
<path d="M6.94389 14.4966C4.96815 18.8616 6.16278 24.2375 9.88452 28.0052C11.8603 29.9349 12.7333 30.4863 15.3523 31.1755C17.0523 31.635 18.4307 32.2323 18.4767 32.508C18.5226 32.7837 18.4767 33.7026 18.4307 34.4837C18.3848 35.3108 18.5226 36 18.7524 36C19.3956 36 24.8634 30.8998 24.8634 30.3025C24.8634 29.7512 19.3497 24.0537 18.7524 24.0537C18.5686 24.0537 18.4307 24.9726 18.4307 26.1213C18.4307 28.0511 18.3388 28.189 17.1901 28.189C15.2604 28.189 12.1359 26.0754 10.8954 23.9158C9.33315 21.2968 9.01152 18.7697 9.83857 16.2886C10.5278 14.3588 10.5278 14.221 9.56289 13.4399C8.13852 12.2452 7.90878 12.3371 6.94389 14.4966Z" fill="#0084D0"/>
</svg>
