<svg width="40" height="40" viewBox="0 0 40 40" fill="none" xmlns="http://www.w3.org/2000/svg">
<path d="M30.6993 28.5223L26.4153 24.2383C26.2219 24.045 25.9598 23.9375 25.6848 23.9375H24.9844C26.1704 22.4207 26.8751 20.5129 26.8751 18.4375C26.8751 13.5004 22.8747 9.5 17.9375 9.5C13.0004 9.5 9 13.5004 9 18.4375C9 23.3747 13.0004 27.3751 17.9375 27.3751C20.0129 27.3751 21.9207 26.6704 23.4375 25.4844V26.1848C23.4375 26.4598 23.545 26.7219 23.7383 26.9153L28.0223 31.1993C28.4262 31.6032 29.0794 31.6032 29.479 31.1993L30.695 29.9833C31.0989 29.5794 31.0989 28.9262 30.6993 28.5223ZM17.9375 23.9375C14.8996 23.9375 12.4375 21.4797 12.4375 18.4375C12.4375 15.3996 14.8953 12.9375 17.9375 12.9375C20.9754 12.9375 23.4375 15.3953 23.4375 18.4375C23.4375 21.4754 20.9797 23.9375 17.9375 23.9375Z" fill="white"/>
</svg>
