<svg width="24" height="24" viewBox="0 0 24 24" fill="none" xmlns="http://www.w3.org/2000/svg">
<path d="M11.9995 19.4305L6.66732 22.7937C6.43176 22.9507 6.1855 23.0179 5.92853 22.9955C5.67156 22.9731 5.44671 22.8834 5.25398 22.7264C5.06126 22.5695 4.91136 22.3735 4.80429 22.1385C4.69721 21.9036 4.6758 21.6399 4.74004 21.3475L6.15338 14.991L1.43155 10.7197C1.21741 10.5179 1.08378 10.2879 1.03068 10.0296C0.97757 9.77129 0.993416 9.51928 1.07822 9.27354C1.16302 9.0278 1.2915 8.826 1.46367 8.66816C1.63584 8.51031 1.8714 8.40941 2.17034 8.36547L8.40187 7.79372L10.811 1.80717C10.918 1.53812 11.0842 1.33632 11.3095 1.20179C11.5348 1.06726 11.7648 1 11.9995 1C12.2342 1 12.4641 1.06726 12.6894 1.20179C12.9147 1.33632 13.0809 1.53812 13.1879 1.80717L15.597 7.79372L21.8286 8.36547C22.1284 8.41031 22.3639 8.5112 22.5352 8.66816C22.7065 8.82511 22.835 9.0269 22.9207 9.27354C23.0063 9.52017 23.0226 9.77264 22.9695 10.0309C22.9164 10.2892 22.7824 10.5188 22.5674 10.7197L17.8455 14.991L19.2589 21.3475C19.3231 21.639 19.3017 21.9027 19.1946 22.1385C19.0875 22.3744 18.9376 22.5704 18.7449 22.7264C18.5522 22.8825 18.3273 22.9722 18.0704 22.9955C17.8134 23.0188 17.5671 22.9516 17.3316 22.7937L11.9995 19.4305Z" fill="#FCBF02"/>
</svg>
