<svg width="24" height="24" viewBox="0 0 24 24" fill="none" xmlns="http://www.w3.org/2000/svg">
<path d="M19.4003 2.11999C19.264 2.17451 15.0388 3.04683 10.0775 4.05544C5.08897 5.06405 1 5.96362 1 6.0454C1 6.15444 2.36299 6.91771 3.99858 7.79003L6.99715 9.37109L13.8666 5.7728C17.6557 3.8101 20.8179 2.14725 20.8724 2.09273C21.0087 1.95644 19.782 1.9837 19.4003 2.11999Z" fill="#0084D0"/>
<path d="M19.3992 4.78996C17.4365 6.3165 14.6832 8.47003 13.293 9.58768L10.7578 11.5776L14.6287 14.1401C16.7822 15.5576 18.5814 16.6752 18.6359 16.5934C18.7722 16.4571 23.0792 2.17302 22.9975 2.09124C22.9702 2.06398 21.3346 3.29067 19.3992 4.78996Z" fill="#0084D0"/>
<path d="M18.4468 4.05349C17.4654 4.57142 14.7667 5.98893 12.4496 7.1611C10.1325 8.33327 8.00628 9.47818 7.76095 9.669C7.29753 9.99612 7.29753 10.1597 7.70643 12.4768C7.95177 13.8125 8.25162 15.0119 8.3334 15.121C8.44244 15.23 8.79682 14.5758 9.17845 13.6217C9.53283 12.6948 9.94173 11.768 10.1053 11.5499C10.2688 11.3318 12.5041 9.50544 15.0393 7.48822C21.2818 2.52694 21.3908 2.44516 18.4468 4.05349Z" fill="#0084D0"/>
<path d="M4.89651 10.7325C4.54213 10.8688 4.26953 11.1414 4.26953 11.3867C4.26953 11.8774 4.32405 11.8774 5.22362 11.4685C6.31401 10.9778 6.01416 10.2963 4.89651 10.7325Z" fill="#0084D0"/>
<path d="M2.52631 12.7507C2.00838 13.5412 1.95386 14.25 2.44453 14.25C2.85343 14.25 3.78026 12.6689 3.56218 12.3146C3.31684 11.9057 2.98973 12.042 2.52631 12.7507Z" fill="#0084D0"/>
<path d="M9.88725 13.4845C8.6333 16.3468 8.60604 16.3196 10.7323 15.2564C11.7409 14.7385 12.7495 14.2751 12.9676 14.1933C13.2129 14.1388 12.8313 13.7026 11.9317 13.0756L10.5142 12.0398L9.88725 13.4845Z" fill="#0084D0"/>
<path d="M1.71037 15.2592C1.49229 15.5045 1.51955 17.0311 1.76489 17.44C2.20105 18.1215 2.69172 17.3582 2.50091 16.3223C2.31009 15.3137 2.03749 14.9321 1.71037 15.2592Z" fill="#0084D0"/>
<path d="M12.8858 16.3217C12.6677 17.194 13.1584 17.8755 13.5401 17.2485C13.8944 16.7306 13.7854 15.831 13.3765 15.6947C13.1857 15.6402 12.9676 15.9128 12.8858 16.3217Z" fill="#0084D0"/>
<path d="M2.47291 18.7176C2.33661 19.0447 2.55469 19.4536 3.12715 20.0533C3.89042 20.7894 3.99946 20.8439 4.16302 20.4077C4.29932 20.0806 4.08124 19.6717 3.50878 19.072C2.74551 18.336 2.63647 18.2815 2.47291 18.7176Z" fill="#0084D0"/>
<path d="M11.7691 19.2937C11.0603 20.5749 11.5237 20.8475 12.4778 19.7026C13.4046 18.6122 13.4592 18.3396 12.7777 18.3396C12.4778 18.3396 12.0417 18.7213 11.7691 19.2937Z" fill="#0084D0"/>
<path d="M9.25964 20.956C8.25103 21.3921 8.06021 21.8828 8.878 21.8828C9.75031 21.8828 10.868 21.3649 10.7589 21.0105C10.5954 20.5471 10.241 20.5198 9.25964 20.956Z" fill="#0084D0"/>
<path d="M4.95478 21.0644C4.7367 21.4188 6.64489 22.2366 7.16282 22.0457C7.7898 21.8004 7.59898 21.4188 6.69941 21.0917C5.60902 20.71 5.17286 20.71 4.95478 21.0644Z" fill="#0084D0"/>
</svg>
