<svg width="38" height="38" viewBox="0 0 38 38" fill="none" xmlns="http://www.w3.org/2000/svg">
<path d="M12.3021 5.60853C9.17718 8.08052 7.03168 10.8324 7.7313 11.6719C8.47756 12.5581 7.82458 13.4443 6.65855 13.1178C5.53916 12.8379 4 13.5375 4 14.3771C4 14.7036 5.16603 16.1028 6.61191 17.5021C9.0839 19.974 9.22382 20.0207 9.8768 19.1811C10.2499 18.6681 10.5298 17.5487 10.5298 16.7092C10.5298 15.17 11.0895 14.7036 11.7424 15.683C11.8824 15.9629 12.4887 16.0562 13.0018 15.9162C14.0279 15.683 16.1267 17.1756 16.1267 18.155C16.1267 18.4349 13.6081 21.1867 10.5298 24.265C6.79848 27.9963 4.97947 30.1418 5.16603 30.6082C5.3526 30.9814 6.09886 31.7743 6.89176 32.3806L8.291 33.5L17.1995 24.5915C25.6882 16.1028 26.2479 15.6364 27.927 15.6364C28.9064 15.6364 30.3057 15.3099 31.0053 14.9368C33.1974 13.8174 34.55 9.99281 33.384 8.1738C33.0109 7.61411 32.5911 7.84731 30.912 9.47976L28.8131 11.532L27.8337 10.4592L26.8542 9.38647L28.8131 7.3809C30.912 5.2354 30.8187 4.48914 28.3467 4.4425C25.0818 4.4425 22.6565 6.96113 22.6565 10.4126C22.6565 11.7652 22.33 12.5114 21.3505 13.4443L20.0446 14.7036L18.7386 13.351C17.9924 12.5581 17.5726 11.7652 17.7592 11.4387C17.9457 11.1588 17.6659 10.4126 17.1062 9.85289L16.1267 8.82678L17.8058 6.86785L19.4383 4.90891L18.2256 4.4425C16.0334 3.60296 14.4943 3.92945 12.3021 5.60853Z" fill="#0084D0"/>
<path d="M23.6839 21.8406C22.8444 22.6801 22.1914 23.613 22.1914 23.8462C22.1914 24.126 24.2903 26.3648 26.8555 28.8834C29.8872 31.8685 31.6596 33.3143 32.0794 33.0811C33.2454 32.4282 34.7845 30.8423 34.7845 30.3293C34.7845 29.8629 25.7361 20.3014 25.3164 20.3014C25.2231 20.3014 24.5235 21.001 23.6839 21.8406Z" fill="#0084D0"/>
</svg>
