<svg width="38" height="38" viewBox="0 0 38 38" fill="none" xmlns="http://www.w3.org/2000/svg">
<path d="M25.5062 3.6747C19.7031 6.43352 18.7518 13.5208 23.6035 17.4212C24.5073 18.1347 25.2684 19.1336 25.2684 19.6093C25.2684 20.1325 25.6964 20.6082 26.2197 20.7508C27.0759 20.9887 27.171 21.4168 27.171 25.1269C27.171 29.3603 26.7905 30.4067 25.2208 30.4067C24.2219 30.4067 23.8414 29.4554 23.8414 26.8393C23.8414 23.1767 21.9863 20.8935 18.9421 20.8935C17.3724 20.8935 17.1822 20.0374 17.1822 12.7598C17.1822 4.34062 17.3249 4.48332 9.09595 4.48332C0.391399 4.48332 1.00976 3.34174 1.00976 19.2287C1.00976 35.1157 0.391399 33.9742 9.00082 33.9742C16.8016 33.9742 16.9919 33.8315 17.4675 28.409C17.8005 24.5086 18.4189 23.5572 19.7983 24.6988C20.2739 25.0793 20.5118 26.1258 20.5118 27.6479C20.5118 31.691 22.2241 33.6888 25.6489 33.7363C27.3137 33.7363 27.9796 33.4509 29.1212 32.3569C30.453 30.9775 30.5006 30.8348 30.5006 25.9355C30.5006 21.7497 30.6433 20.8935 31.2141 20.8935C31.5946 20.8935 31.9276 20.5606 31.9276 20.1325C31.9276 19.7044 32.8789 18.4677 34.0205 17.3737C37.3025 14.2819 37.9209 10.4766 35.6377 6.76648C33.6399 3.48444 28.9785 2.05746 25.5062 3.6747ZM30.4055 6.67135C32.3081 7.33727 33.3546 9.00208 33.3546 11.2852C33.3546 14.71 29.7395 16.9931 26.7429 15.471C22.9852 13.5208 22.7949 9.23991 26.3624 7.09944C28.1223 6.00543 28.4077 5.95786 30.4055 6.67135ZM11.284 9.23991C10.4754 10.4766 10.2375 14.2343 10.951 14.2343C11.1889 14.2343 11.9499 13.5208 12.6158 12.6647L13.8525 11.1425V12.9976C13.8525 14.5197 13.5671 15.1381 12.1877 16.4224C10.7608 17.7066 10.5229 18.2299 10.5229 20.1325C10.5229 21.3216 10.6656 22.3205 10.9035 22.3205C11.0937 22.3205 11.8072 21.6546 12.5207 20.7984L13.805 19.2287L13.8525 21.0838C13.8525 22.6535 13.5671 23.2243 12.1877 24.5086C10.7608 25.7928 10.5229 26.3161 10.5229 28.2187C10.5229 30.3116 10.4754 30.4067 9.09595 30.4067C7.71654 30.4067 7.66898 30.3116 7.66898 28.2187C7.66898 26.3161 7.43115 25.8404 6.00417 24.5561C4.62476 23.3194 4.33937 22.7962 4.33937 21.1789L4.38693 19.2287L5.67121 20.7984C6.3847 21.6546 7.09819 22.3205 7.33602 22.3205C7.52628 22.3205 7.66898 21.3216 7.66898 20.1325C7.66898 18.2299 7.43115 17.7066 6.00417 16.4224C4.62476 15.1381 4.33937 14.5197 4.33937 12.9976V11.1425L5.57608 12.6647C6.242 13.5208 7.00306 14.2343 7.24089 14.2343C7.95437 14.2343 7.71654 10.2388 6.90792 9.09721L6.19444 8.05076H9.14352H12.045L11.284 9.23991ZM5.71878 29.0749L6.86036 30.4067H5.62365C4.48206 30.4067 4.33937 30.2165 4.33937 28.8846C4.33937 28.076 4.38693 27.5052 4.48206 27.6003C4.52963 27.6955 5.10042 28.3614 5.71878 29.0749ZM13.8525 28.9797C13.8525 30.2165 13.6623 30.4067 12.6158 30.4067H11.3791L12.5207 29.0273C13.1391 28.2187 13.6623 27.6003 13.7574 27.6003C13.805 27.5528 13.8525 28.1711 13.8525 28.9797Z" fill="#0084D0"/>
<path d="M28.9777 9.52508C27.075 10.4764 26.7421 11.3802 27.8361 12.2839C28.7874 13.0925 29.7863 12.5217 30.6425 10.6191C31.8792 8.09811 31.7365 8.05054 28.9777 9.52508Z" fill="#0084D0"/>
</svg>
