<svg width="38" height="38" viewBox="0 0 38 38" fill="none" xmlns="http://www.w3.org/2000/svg">
<path d="M26.0286 4.50501C25.5365 4.75104 25.1429 5.53835 25.1429 6.17803C25.1429 6.81771 24.7984 7.55581 24.3556 7.80184C23.8143 8.09708 23.4698 9.13041 23.273 10.7542C22.9286 14.4447 23.3714 15.6749 25.2905 16.1669L26.8651 16.5606V22.7606C26.8651 29.8463 26.373 31.0272 23.3714 31.0272C20.4683 31.0272 20.2222 30.0923 20.2222 19.5622C20.2222 9.32724 19.927 7.99866 17.319 5.78438C14.3175 3.27485 8.85556 4.45581 7.08413 7.90025C6.69048 8.73676 6.44444 11.5415 6.44444 16.1177V23.1542H5.01746C3.24603 23.1542 3 23.7939 3 27.878C3 30.2399 3.19683 31.1256 3.7381 31.3225C4.13175 31.5193 4.47619 32.0114 4.47619 32.5034C4.47619 34.2256 5.90317 35.013 8.56032 34.8653C10.8238 34.7177 11.0698 34.5701 11.5127 33.2415C11.8079 32.405 12.3 31.5685 12.6444 31.3717C13.1365 31.1256 13.3333 29.9447 13.3333 27.6812C13.3333 23.9415 13.0381 23.2526 11.3651 23.0066C10.1349 22.8098 10.1349 22.8098 9.9873 16.3637C9.88889 10.4098 9.9381 9.8193 10.873 8.88438C12.1524 7.60501 14.4159 7.60501 15.5968 8.93358C16.4333 9.8685 16.5317 10.8526 16.5317 19.6606C16.5317 30.3876 16.7778 31.3717 19.681 33.3399C21.846 34.8161 25.1429 34.8653 27.3571 33.4876C29.8667 31.913 30.5556 29.6003 30.5556 22.4161V16.2653H31.7857C33.4095 16.2653 34 14.986 34 11.3939C34 8.93359 33.8524 8.34311 33.0159 7.90025C32.4254 7.60501 32.0317 6.86692 32.0317 6.12882C32.0317 5.29231 31.6381 4.80025 30.7524 4.45581C29.1778 3.81612 27.1111 3.86533 26.0286 4.50501Z" fill="#0084D0"/>
</svg>
