<svg width="38" height="38" viewBox="0 0 38 38" fill="none" xmlns="http://www.w3.org/2000/svg">
<path d="M13.8199 4.27102C10.8057 5.84766 8.95082 8.30536 8.20887 11.8296C7.5133 15.2611 8.57985 19.0172 11.0375 21.7068C12.2896 23.1443 12.7997 24.1181 12.8924 25.5093C13.0779 28.3843 13.4025 28.5234 19.0135 28.5234C24.81 28.5234 25.4592 28.1988 25.4592 25.1847C25.4592 23.608 25.7838 22.9588 27.2677 21.3358C31.0701 17.1624 31.0238 11.0413 27.1749 6.45049C24.1607 2.87987 18.4107 1.95243 13.8199 4.27102ZM21.8885 6.91421C22.7232 7.23881 24.068 8.25899 24.8563 9.18643C27.6386 12.3861 27.2213 17.0232 23.7898 20.1302C22.5841 21.2431 22.2131 21.9387 22.2131 23.1907V24.8137H19.2453H16.2776L15.953 23.0979C15.7675 21.985 15.0255 20.7794 13.8662 19.6664C7.79153 13.7309 14.0981 3.62182 21.8885 6.91421Z" fill="#0084D0"/>
<path d="M14.8599 31.5784C14.1379 32.2257 14.5504 34.0752 15.4787 34.5376C16.0459 34.7688 17.7986 35 19.655 35C22.3882 35 22.4913 34.7672 23.2648 34.5358C24.2962 34.0734 24.554 31.9927 23.7805 31.5303C23.3525 31.3916 23.8321 31.4379 19.655 31.2991C16.9735 31.2529 15.0661 31.3934 14.8599 31.5784Z" fill="#0084D0"/>
</svg>
